<?xml version="1.0" encoding="UTF-8"?>
<svg version="1.1" xmlns="http://www.w3.org/2000/svg" width="662" height="662">
<path d="M0 0 C0.78823025 0.00011959 1.57646049 0.00023918 2.38857651 0.0003624 C27.97411467 0.00526151 53.4690255 0.37608879 79 2.1875 C80.50926848 2.29049449 82.01854586 2.39335874 83.52783203 2.49609375 C150.83836785 7.16424667 229.50200187 17.24143329 276.5078125 71.10546875 C315.9407268 119.87125148 324.98568208 184.61966387 329.6875 245.3125 C329.74843842 246.0974585 329.80937683 246.88241699 329.87216187 247.69116211 C331.37882232 267.41641363 332.15985363 287.12436314 332.16796875 306.90625 C332.17120318 308.82401552 332.17456863 310.74178082 332.17805481 312.6595459 C332.18397976 316.65275643 332.18590194 320.64594555 332.18530273 324.63916016 C332.18522204 328.6427874 332.19208635 332.64629885 332.20581055 336.64990234 C332.31681534 369.58493469 331.70710989 402.46726374 328.25 435.25 C328.12644638 436.45275574 328.12644638 436.45275574 328.00039673 437.67980957 C323.60341262 480.0912389 316.75643946 524.39219233 296 562.1875 C295.48824219 563.18523438 294.97648438 564.18296875 294.44921875 565.2109375 C290.91078033 572.02076238 286.68691803 578.11953798 282 584.1875 C281.31035156 585.08339844 280.62070312 585.97929688 279.91015625 586.90234375 C240.06464019 637.12354573 174.04635766 650.71680993 113.5 657.875 C109.37987997 658.30280449 105.25697659 658.67303194 101.12860107 659.01171875 C99.65198612 659.13365857 98.17564062 659.25888863 96.69952393 659.38671875 C22.14961671 665.82831385 -55.85456617 665.83386619 -130 655.1875 C-131.09119141 655.03168457 -132.18238281 654.87586914 -133.30664062 654.71533203 C-140.23674073 653.6990464 -147.12217756 652.51055161 -154 651.1875 C-155.56113525 650.89069336 -155.56113525 650.89069336 -157.15380859 650.58789062 C-195.04362083 643.21963993 -233.62583249 630.39487931 -262 603.1875 C-263.35014777 602.05767995 -264.70419791 600.93250348 -266.0625 599.8125 C-315.8580512 556.21639493 -323.19949015 474.47544743 -327.75 412.875 C-327.80925659 412.07746307 -327.86851318 411.27992615 -327.92956543 410.45822144 C-329.82405152 384.39281077 -330.2057515 358.30983598 -330.1875 332.1875 C-330.18732061 331.04393414 -330.18732061 331.04393414 -330.1871376 329.87726593 C-330.18207272 304.26645216 -329.74038127 278.74733556 -328 253.1875 C-327.89702656 251.61605531 -327.79416221 250.04460346 -327.69140625 248.47314453 C-323.32167078 182.90156593 -313.27881846 109.16950745 -264 61.1875 C-263.55011719 60.6925 -263.10023438 60.1975 -262.63671875 59.6875 C-215.29373267 8.93769854 -125.61123294 4.29556488 -61 1.1875 C-60.11928833 1.14406464 -59.23857666 1.10062927 -58.33117676 1.05587769 C-38.88636843 0.12343153 -19.46211337 -0.01312855 0 0 Z " fill="#F6F6F6" transform="translate(330,-0.1875)"/>
<path d="M0 0 C3.66487901 1.29348671 5.5020191 2.26225052 7.6875 5.5 C8.76208947 8.36557191 9.59323838 11.11064407 10.3671875 14.0625 C24.10897402 64.92261624 52.0703924 110.64230785 89.3125 147.625 C89.8600293 148.17070648 90.40755859 148.71641296 90.97167969 149.27865601 C98.3680388 156.63368791 105.76320535 163.78363464 114.31152344 169.80761719 C116.19867412 171.14030139 118.05541857 172.5106774 119.9140625 173.8828125 C148.23250232 194.56478176 179.98244838 211.03966322 213.87109375 220.375 C214.64130859 220.58817871 215.41152344 220.80135742 216.20507812 221.02099609 C217.64343862 221.41015881 219.08604362 221.7841138 220.53320312 222.13916016 C225.26152837 223.40357549 227.95700458 225.16743948 231 229 C231.73336162 234.13353134 231.59460251 237.0672527 228.50561523 241.42749023 C225.22352094 244.85540808 220.90735755 246.87204919 216.75 249.0625 C215.76870117 249.58908203 214.78740234 250.11566406 213.77636719 250.65820312 C206.80413194 254.30004234 199.98519923 256.97196352 192.41796875 259.0546875 C188.54169538 260.12675396 184.92783573 261.55516038 181.22265625 263.1015625 C179.00427726 263.99827106 176.77619704 264.76369974 174.5 265.5 C165.63600411 268.38970256 165.63600411 268.38970256 157.375 272.625 C154.04192347 274.55467588 150.75589071 275.17243086 147 276 C147 276.66 147 277.32 147 278 C145.88625 278.53625 144.7725 279.0725 143.625 279.625 C129.42850122 286.74824322 117.15206084 296.28963907 104.97216797 306.36865234 C103.71839485 307.4057546 102.46244875 308.44023972 101.20361328 309.47119141 C88.94243094 319.5133146 77.51766663 330.21297957 68.41015625 343.28125 C67.94480469 343.8484375 67.47945313 344.415625 67 345 C66.34 345 65.68 345 65 345 C64.7421875 345.73476563 64.484375 346.46953125 64.21875 347.2265625 C62.9525979 350.10787017 61.5401823 351.99200018 59.5 354.375 C54.14475208 360.91922896 49.52687506 367.86774171 45 375 C44.59523438 375.63760254 44.19046875 376.27520508 43.7734375 376.93212891 C33.26931875 393.68365699 24.30975144 411.68470197 18.1640625 430.4921875 C17.18890059 433.43076266 16.10212358 436.22419126 14.875 439.0625 C12.82051474 443.97466434 11.69002565 449.08247153 10.65771484 454.29321289 C9.24755292 460.68642177 6.4435045 464.370997 1 468 C-4.81276728 468.68385497 -9.29975364 467.38223913 -14 464 C-18.46696762 459.63532935 -19.5448465 454.54948779 -21.0625 448.6875 C-22.75930631 442.31885031 -24.54135751 436.11878288 -27 430 C-27.25724854 429.34974854 -27.51449707 428.69949707 -27.77954102 428.02954102 C-41.7718608 392.94821588 -60.70417512 361.24972421 -87 334 C-87.56654297 333.41154297 -88.13308594 332.82308594 -88.71679688 332.21679688 C-96.09444443 324.59458642 -103.65895194 317.57324384 -112 311 C-112.82242188 310.29875 -113.64484375 309.5975 -114.4921875 308.875 C-126.88849825 298.3249483 -140.74276646 289.87575799 -155.01293945 282.12426758 C-157.28332332 280.83969727 -159.48428877 279.45990957 -161.69921875 278.08203125 C-167.34476562 274.67820884 -173.23375232 272.09105471 -179.3125 269.5625 C-180.44171875 269.08876953 -181.5709375 268.61503906 -182.734375 268.12695312 C-191.48408755 264.50994597 -200.32566773 261.3147021 -209.34375 258.4375 C-210.48360352 258.07301758 -210.48360352 258.07301758 -211.64648438 257.70117188 C-213.29039747 257.21140855 -214.95038781 256.77391968 -216.61914062 256.37695312 C-222.89566921 254.80665607 -225.94127194 252.88586025 -229.5 247.5 C-230.12261719 246.62794922 -230.12261719 246.62794922 -230.7578125 245.73828125 C-234.06892268 241.070684 -236.19937356 238.03593052 -236.55859375 232.23046875 C-235.64249159 228.57246641 -233.93094324 226.25711943 -231 224 C-226.92538176 222.21316282 -222.72327839 221.0484582 -218.4375 219.875 C-216.18580021 219.2279449 -213.93449557 218.57951307 -211.68359375 217.9296875 C-210.57387207 217.61354492 -209.46415039 217.29740234 -208.32080078 216.97167969 C-198.57448863 214.11986948 -189.43328646 210.58839344 -180.31884766 206.12939453 C-178.66342925 205.32312315 -177.00375275 204.52557041 -175.34130859 203.73388672 C-138.3786957 186.12633379 -102.11563772 161.06863255 -76.2734375 128.83203125 C-74.81981449 127.02124657 -73.34745162 125.22524711 -71.8515625 123.44921875 C-51.33449974 99.04354302 -35.52650983 70.65922086 -24 41 C-23.69223633 40.21141602 -23.38447266 39.42283203 -23.06738281 38.61035156 C-20.33746418 31.55592233 -17.63603802 24.51226269 -15.6640625 17.203125 C-15.35021606 16.04804443 -15.35021606 16.04804443 -15.0300293 14.86962891 C-14.64846375 13.42417623 -14.28633124 11.97338189 -13.94848633 10.51708984 C-12.12659777 3.51806609 -7.64002142 -1.2733369 0 0 Z " fill="#79ACC1" transform="translate(332,94)"/>
<path d="M0 0 C0.99 0.495 0.99 0.495 2 1 C2.01981934 1.87624023 2.03963867 2.75248047 2.06005859 3.65527344 C2.13904139 6.96556918 2.2257524 10.27548827 2.31738281 13.58544922 C2.35522034 15.00692184 2.39014384 16.42847561 2.421875 17.85009766 C2.60232043 25.84044669 3.0986682 33.56101035 4.56787109 41.44042969 C5.13138917 44.77823957 5.19853358 47.86745533 5.125 51.25 C5.10695313 52.34828125 5.08890625 53.4465625 5.0703125 54.578125 C5.04710937 55.37734375 5.02390625 56.1765625 5 57 C5.66 57 6.32 57 7 57 C7.73052721 67.33174197 8.12521238 77.64156876 8.1875 88 C8.20039063 89.05638672 8.21328125 90.11277344 8.2265625 91.20117188 C8.22785156 92.18666016 8.22914063 93.17214844 8.23046875 94.1875 C8.23457764 95.06792969 8.23868652 95.94835937 8.24291992 96.85546875 C8 99 8 99 6 101 C5.34 100.67 4.68 100.34 4 100 C3.67 100.99 3.34 101.98 3 103 C2.01 103 1.02 103 0 103 C0 100.69 0 98.38 0 96 C-0.33 96 -0.66 96 -1 96 C-1 80.16 -1 64.32 -1 48 C-2.42137965 51.55344912 -3.27321414 53.80304538 -3.78125 57.3984375 C-3.90113281 58.20796875 -4.02101563 59.0175 -4.14453125 59.8515625 C-4.26183594 60.68429688 -4.37914062 61.51703125 -4.5 62.375 C-5.31189199 68.0850096 -6.3672622 73.4539797 -8 79 C-8.34317756 81.01585039 -8.65728387 83.03693772 -8.9375 85.0625 C-9.6471298 89.57934998 -10.74802205 92.98560453 -13 97 C-13.37309899 98.65821773 -13.70700977 100.32577014 -14 102 C-17.68051371 114.05626218 -23.68848837 123.63580164 -32 133 C-32.90040793 134.07953417 -33.79717112 135.16213835 -34.6875 136.25 C-35.8321875 137.61125 -35.8321875 137.61125 -37 139 C-37.40686035 139.49160614 -37.8137207 139.98321228 -38.23291016 140.48971558 C-42.46187944 145.52896699 -47.03182949 150.17670238 -51.6875 154.8203125 C-52.50822998 155.64199921 -53.32895996 156.46368591 -54.17456055 157.31027222 C-55.90127798 159.03766691 -57.62924591 160.76381241 -59.35839844 162.48876953 C-61.99528976 165.12029933 -64.62679503 167.7571302 -67.2578125 170.39453125 C-68.94238775 172.07844577 -70.62727313 173.7620501 -72.3125 175.4453125 C-73.09391357 176.22875031 -73.87532715 177.01218811 -74.68041992 177.81936646 C-85.4509962 188.54412357 -85.4509962 188.54412357 -92 191 C-96.02400169 193.47271059 -96.02400169 193.47271059 -99.5 196.625 C-101.67964681 198.62300958 -104.20960648 199.06986883 -107 200 C-107.969375 200.680625 -108.93875 201.36125 -109.9375 202.0625 C-113.46944659 204.29699682 -115.87905377 204.51107418 -120 205 C-123.04234987 205.88291972 -126.01413474 206.94408487 -129 208 C-133.5096928 209.56831495 -138.05585818 210.85086687 -142.6875 212 C-143.38866943 212.17515137 -144.08983887 212.35030273 -144.81225586 212.53076172 C-149.74254984 213.74175072 -154.68144208 214.72107053 -159.6875 215.5703125 C-162.85786633 216.15940084 -165.90528576 217.09971949 -169 218 C-173.22755546 218.91496856 -177.46968542 219.75802718 -181.7421875 220.43359375 C-182.85980469 220.71396484 -182.85980469 220.71396484 -184 221 C-184.33 221.66 -184.66 222.32 -185 223 C-184.3702124 222.96970703 -183.7404248 222.93941406 -183.09155273 222.90820312 C-180.2069473 222.7704246 -177.32222772 222.63519307 -174.4375 222.5 C-173.44685547 222.45230469 -172.45621094 222.40460938 -171.43554688 222.35546875 C-166.28371538 222.11584868 -161.15735906 221.94213342 -156 222 C-156 221.34 -156 220.68 -156 220 C-152.36226064 218.74078253 -149.75009748 219.37498375 -146 220 C-142.66485086 220.08986929 -139.33555714 220.05932809 -136 220 C-135.67 219.34 -135.34 218.68 -135 218 C-134.34 218.165 -133.68 218.33 -133 218.5 C-130.41603544 218.93066076 -128.56704434 218.92502575 -126 218.75 C-122.34673281 218.6669712 -122.06813979 218.94321684 -119 221.5 C-118.34 222.325 -117.68 223.15 -117 224 C-117.66 225.32 -118.32 226.64 -119 228 C-119.33 227.34 -119.66 226.68 -120 226 C-122.41400129 225.49033312 -122.41400129 225.49033312 -125.25 225.3125 C-126.68085938 225.18294922 -126.68085938 225.18294922 -128.140625 225.05078125 C-130.92001466 224.88064426 -130.92001466 224.88064426 -133.234375 225.54296875 C-135.85252451 225.97562905 -137.48043876 225.87657749 -140.07275391 225.53466797 C-147.89438006 224.69998847 -155.74637109 224.87666058 -163.6015625 224.90234375 C-165.29120847 224.90421222 -166.980855 224.90563409 -168.67050171 224.90663147 C-173.08613621 224.9104229 -177.50173706 224.92022382 -181.9173584 224.93133545 C-186.43578639 224.94162266 -190.95421989 224.94614465 -195.47265625 224.95117188 C-204.3151195 224.96184959 -213.15755554 224.97888477 -222 225 C-222 224.01 -222 223.02 -222 222 C-221.04299194 221.80422363 -221.04299194 221.80422363 -220.06665039 221.60449219 C-200.09978753 217.50964485 -180.47020816 213.08000425 -161 207 C-160.15566406 206.74089844 -159.31132812 206.48179687 -158.44140625 206.21484375 C-153.99315 204.80404497 -149.93152269 203.08874812 -145.82421875 200.8671875 C-143.88949506 199.94746874 -142.08858475 199.46095718 -140 199 C-137.64811553 198.40206327 -135.31074405 197.74118205 -133 197 C-132.67 196.34 -132.34 195.68 -132 195 C-130.00773831 194.71080072 -128.01277818 194.42735449 -126.0078125 194.24609375 C-123.79670732 194.0424937 -123.79670732 194.0424937 -121 193 C-120.773125 192.38125 -120.54625 191.7625 -120.3125 191.125 C-118.53256109 188.24319414 -116.44895252 188.12134091 -113.3515625 187.11328125 C-109.41233278 185.24836353 -106.57355065 182.187099 -103.4921875 179.15625 C-100.81220819 176.83752182 -98.20349136 175.48687082 -95 174 C-91.12806571 171.55040892 -87.5478563 168.89430382 -84 166 C-83.278125 165.525625 -82.55625 165.05125 -81.8125 164.5625 C-79.82411919 163.09311807 -79.82411919 163.09311807 -79.0625 160.625 C-77.69525716 157.24710593 -75.6254027 155.50038352 -73 153 C-72.319375 152.0925 -71.63875 151.185 -70.9375 150.25 C-69 148 -69 148 -67.109375 147.56640625 C-64.42804001 146.84641815 -63.25176975 145.65200971 -61.3125 143.6875 C-60.71050781 143.09324219 -60.10851562 142.49898437 -59.48828125 141.88671875 C-57.89405592 139.86569294 -57.48714985 138.49215609 -57 136 C-55.46389475 133.46542634 -54.31815799 132.1750682 -51.70703125 130.73828125 C-43.99445122 125.78575872 -36.69558302 115.6519434 -34.0625 106.875 C-32.75047188 103.32480626 -30.68428772 101.61545983 -28 99 C-27.62243192 97.67851173 -27.29506858 96.34232016 -27 95 C-25.98818324 92.42779113 -24.91567875 89.88585897 -23.83984375 87.33984375 C-22.83108547 84.94372994 -22.83108547 84.94372994 -23 82 C-22.01 80.515 -22.01 80.515 -21 79 C-20.39364398 76.96496951 -19.98663169 74.93315843 -19.5703125 72.8515625 C-18.8710297 69.35514851 -18.19436743 66.3802841 -16.5625 63.1875 C-14.18993344 58.34746422 -13.22720265 53.2305045 -12 48 C-11.39965188 45.5823819 -10.79521125 43.16577776 -10.1875 40.75 C-9.8514719 39.40236634 -9.51553956 38.0547088 -9.1796875 36.70703125 C-8.27796301 33.09775615 -7.36289729 29.49199282 -6.4453125 25.88671875 C-6.04082886 24.28908691 -6.04082886 24.28908691 -5.62817383 22.65917969 C-5.09442617 20.55102822 -4.55791414 18.44357425 -4.01831055 16.33691406 C-2.97030493 12.18589606 -1.94361045 8.0962533 -1.38671875 3.84765625 C-1 1 -1 1 0 0 Z " fill="#DFC9C1" transform="translate(329,104)"/>
<path d="M0 0 C-5.92099392 2.80524486 -11.62914931 5.37605767 -18 7 C-18.9075 7.309375 -19.815 7.61875 -20.75 7.9375 C-24.62464262 9.20421009 -28.55061792 10.16232107 -32.51171875 11.12109375 C-35.14861418 12.05249323 -36.30148563 12.81009154 -38 15 C-39.20049407 18.10007201 -39.20049407 18.10007201 -40 21 C-39.34 21 -38.68 21 -38 21 C-37.67 22.32 -37.34 23.64 -37 25 C-35.69675781 25.16435547 -35.69675781 25.16435547 -34.3671875 25.33203125 C-28.31674431 26.16447478 -23.36171468 26.9535712 -18 30 C-12.22989307 32.21397741 -6.29263987 33.7367602 -0.28515625 35.15625 C2 36 2 36 4 39 C6.80376352 40.12949221 6.80376352 40.12949221 10 41 C12 41.66666667 14 42.33333333 16 43 C16 43.66 16 44.32 16 45 C16.763125 44.938125 17.52625 44.87625 18.3125 44.8125 C21 45 21 45 22.8125 46.375 C24 48 24 48 24 50 C24.53625 50.268125 25.0725 50.53625 25.625 50.8125 C27.38341232 51.69170616 29.13200545 52.59061154 30.875 53.5 C34.74849778 55.35927894 38.71666845 56.6007413 42.8125 57.875 C45 59 45 59 45.8125 61.125 C45.874375 61.74375 45.93625 62.3625 46 63 C46.99 63 47.98 63 49 63 C49 63.66 49 64.32 49 65 C49.99 65 50.98 65 52 65 C52 65.66 52 66.32 52 67 C52.680625 67.268125 53.36125 67.53625 54.0625 67.8125 C55.031875 68.204375 56.00125 68.59625 57 69 C57.61230469 69.22945313 58.22460938 69.45890625 58.85546875 69.6953125 C60.60506322 70.38072064 62.30649294 71.18581391 64 72 C64.33 72.99 64.66 73.98 65 75 C67.44043164 77.0964292 67.44043164 77.0964292 70.375 79.125 C71.84066406 80.18074219 71.84066406 80.18074219 73.3359375 81.2578125 C75.93779866 83.12069384 75.93779866 83.12069384 79 84 C80.19279561 85.14230691 81.37927637 86.29240074 82.52294922 87.48388672 C84.15674582 89.16089117 85.85072696 90.75455767 87.56640625 92.34765625 C88.21158203 92.94747314 88.85675781 93.54729004 89.52148438 94.1652832 C90.19501953 94.79136475 90.86855469 95.41744629 91.5625 96.0625 C96.76296845 100.92383356 101.935123 105.80968307 107 110.8125 C107.50990479 111.30951416 108.01980957 111.80652832 108.54516602 112.31860352 C109.73680745 113.50690175 110.87457056 114.74881234 112 116 C112 116.66 112 117.32 112 118 C112.99 118.33 113.98 118.66 115 119 C116.77841668 121.04769441 118.42969289 123.09129138 120.0625 125.25 C120.54710693 125.88043213 121.03171387 126.51086426 121.53100586 127.16040039 C122.53631368 128.46901833 123.53897647 129.77967224 124.5390625 131.09228516 C125.87597624 132.83804785 127.22967254 134.56840014 128.59375 136.29296875 C152.19689362 166.35709947 170.24151322 202.117362 180.109375 239.06640625 C181.70262323 245.87372049 181.70262323 245.87372049 186.25 250.8125 C187.1575 251.204375 188.065 251.59625 189 252 C185.50548696 253.16483768 184.14811009 252.50640626 180.81640625 251.1796875 C174.80063328 247.27266935 173.62692587 241.21296433 171.9375 234.6875 C170.24069369 228.31885031 168.45864249 222.11878288 166 216 C165.74275146 215.34974854 165.48550293 214.69949707 165.22045898 214.02954102 C151.2281392 178.94821588 132.29582488 147.24972421 106 120 C105.43345703 119.41154297 104.86691406 118.82308594 104.28320312 118.21679688 C96.90555557 110.59458642 89.34104806 103.57324384 81 97 C80.17757812 96.29875 79.35515625 95.5975 78.5078125 94.875 C66.11150175 84.3249483 52.25723354 75.87575799 37.98706055 68.12426758 C35.71667668 66.83969727 33.51571123 65.45990957 31.30078125 64.08203125 C25.65523438 60.67820884 19.76624768 58.09105471 13.6875 55.5625 C12.55828125 55.08876953 11.4290625 54.61503906 10.265625 54.12695312 C1.51591245 50.50994597 -7.32566773 47.3147021 -16.34375 44.4375 C-17.10365234 44.19451172 -17.86355469 43.95152344 -18.64648438 43.70117188 C-20.29039747 43.21140855 -21.95038781 42.77391968 -23.61914062 42.37695312 C-29.89566921 40.80665607 -32.94127194 38.88586025 -36.5 33.5 C-36.91507812 32.91863281 -37.33015625 32.33726562 -37.7578125 31.73828125 C-41.06892268 27.070684 -43.19937356 24.03593052 -43.55859375 18.23046875 C-42.64023684 14.56346319 -40.94555213 12.25417559 -38 10 C-33.84111212 8.19479101 -29.5554076 7.00683081 -25.1875 5.8125 C-22.88872751 5.15442003 -20.59053516 4.49430971 -18.29296875 3.83203125 C-17.20677246 3.52604004 -16.12057617 3.22004883 -15.00146484 2.90478516 C-12.40267682 2.12138606 -9.93587704 1.22430536 -7.42578125 0.19921875 C-3.97091625 -1.01018097 -3.26306197 -1.05051414 0 0 Z " fill="#119064" transform="translate(139,308)"/>
<path d="M0 0 C0.99 0.495 0.99 0.495 2 1 C2.029729 2.31436035 2.029729 2.31436035 2.06005859 3.65527344 C2.13904139 6.96556918 2.2257524 10.27548827 2.31738281 13.58544922 C2.35522034 15.00692184 2.39014384 16.42847561 2.421875 17.85009766 C2.60232043 25.84044669 3.0986682 33.56101035 4.56787109 41.44042969 C5.13138917 44.77823957 5.19853358 47.86745533 5.125 51.25 C5.10695313 52.34828125 5.08890625 53.4465625 5.0703125 54.578125 C5.04710937 55.37734375 5.02390625 56.1765625 5 57 C5.66 57 6.32 57 7 57 C8.64122211 83.64055167 8.64122211 83.64055167 7 91 C5.25767381 87.8321342 4.30459217 84.75468668 3.4375 81.25 C3.18871094 80.26515625 2.93992187 79.2803125 2.68359375 78.265625 C1.28026227 71.56171006 0.83212684 64.95098841 0.68359375 58.125 C0.66281265 57.31506592 0.64203156 56.50513184 0.62062073 55.6706543 C0.55586344 53.11384576 0.49658806 50.55694519 0.4375 48 C0.39424434 46.25389719 0.35062796 44.50780328 0.30664062 42.76171875 C0.20025917 38.50790391 0.09878982 34.25399764 0 30 C-0.64622041 32.41656376 -1.29199004 34.83324646 -1.9375 37.25 C-2.11990234 37.93191406 -2.30230469 38.61382812 -2.49023438 39.31640625 C-3.35053121 42.53860894 -4.20683134 45.76053223 -5 49 C-5.66 49 -6.32 49 -7 49 C-7.10957031 49.845625 -7.21914063 50.69125 -7.33203125 51.5625 C-8.78560127 61.96202532 -8.78560127 61.96202532 -10.5 66 C-11.94087382 69.39532644 -12.41568053 72.59277704 -12.875 76.25 C-13.80055577 82.96420116 -15.78359401 89.02078373 -19 95 C-19.99 95.495 -19.99 95.495 -21 96 C-22.05651441 97.70916494 -22.05651441 97.70916494 -23 99.75 C-23.35320312 100.47703125 -23.70640625 101.2040625 -24.0703125 101.953125 C-25.05878033 104.048284 -25.05878033 104.048284 -25.875 106.5 C-27.32537178 109.7230484 -29.39620074 112.2393024 -31.5546875 115.0234375 C-33.38720152 117.52952424 -34.63724291 120.2152355 -36 123 C-37.22901383 124.81715577 -38.51449117 126.58215123 -39.81640625 128.34765625 C-41.11102954 130.09706776 -41.11102954 130.09706776 -42.4375 132.5 C-45.85006756 137.9601081 -50.41054402 142.51981678 -55 147 C-55.58523438 147.60714844 -56.17046875 148.21429688 -56.7734375 148.83984375 C-60.83612364 153.02296525 -65.02833009 156.68893998 -69.6875 160.19140625 C-73.00352999 162.78485538 -76.07020151 165.63138659 -79.15234375 168.49609375 C-81 170 -81 170 -83 170 C-83.33 170.99 -83.66 171.98 -84 173 C-85.65848177 174.01351664 -87.32665961 175.01120795 -89 176 C-90.70884005 177.62339805 -92.37446717 179.29319053 -94 181 C-95.62836738 182.7041054 -97.28769752 184.38025441 -99 186 C-99.66 186 -100.32 186 -101 186 C-101.33 186.99 -101.66 187.98 -102 189 C-108.76589414 194.0047553 -115.6380938 197.09351017 -124 198 C-123.0919838 196.86800647 -122.17316174 195.74467637 -121.25 194.625 C-120.73953125 193.99851562 -120.2290625 193.37203125 -119.703125 192.7265625 C-118 191 -118 191 -116.109375 190.0859375 C-113.17653608 188.57606858 -111.29477481 186.35688901 -109 184 C-107.16765416 182.41196694 -105.31321122 180.84907011 -103.4375 179.3125 C-102.50808594 178.54550781 -101.57867187 177.77851563 -100.62109375 176.98828125 C-98.42939725 175.32572757 -96.48924113 174.12123146 -94 173 C-90.37461164 170.95490913 -87.21567353 168.63850135 -84 166 C-83.278125 165.525625 -82.55625 165.05125 -81.8125 164.5625 C-79.82411919 163.09311807 -79.82411919 163.09311807 -79.0625 160.625 C-77.69525716 157.24710593 -75.6254027 155.50038352 -73 153 C-72.319375 152.0925 -71.63875 151.185 -70.9375 150.25 C-69 148 -69 148 -67.109375 147.56640625 C-64.42804001 146.84641815 -63.25176975 145.65200971 -61.3125 143.6875 C-60.71050781 143.09324219 -60.10851562 142.49898437 -59.48828125 141.88671875 C-57.89405592 139.86569294 -57.48714985 138.49215609 -57 136 C-55.46389475 133.46542634 -54.31815799 132.1750682 -51.70703125 130.73828125 C-43.99445122 125.78575872 -36.69558302 115.6519434 -34.0625 106.875 C-32.75047188 103.32480626 -30.68428772 101.61545983 -28 99 C-27.62243192 97.67851173 -27.29506858 96.34232016 -27 95 C-25.98818324 92.42779113 -24.91567875 89.88585897 -23.83984375 87.33984375 C-22.83108547 84.94372994 -22.83108547 84.94372994 -23 82 C-22.01 80.515 -22.01 80.515 -21 79 C-20.39364398 76.96496951 -19.98663169 74.93315843 -19.5703125 72.8515625 C-18.8710297 69.35514851 -18.19436743 66.3802841 -16.5625 63.1875 C-14.18993344 58.34746422 -13.22720265 53.2305045 -12 48 C-11.39965188 45.5823819 -10.79521125 43.16577776 -10.1875 40.75 C-9.8514719 39.40236634 -9.51553956 38.0547088 -9.1796875 36.70703125 C-8.27796301 33.09775615 -7.36289729 29.49199282 -6.4453125 25.88671875 C-6.04082886 24.28908691 -6.04082886 24.28908691 -5.62817383 22.65917969 C-5.09442617 20.55102822 -4.55791414 18.44357425 -4.01831055 16.33691406 C-2.97030493 12.18589606 -1.94361045 8.0962533 -1.38671875 3.84765625 C-1 1 -1 1 0 0 Z " fill="#DA8E8D" transform="translate(329,104)"/>
<path d="M0 0 C-5.92099392 2.80524486 -11.62914931 5.37605767 -18 7 C-18.9075 7.309375 -19.815 7.61875 -20.75 7.9375 C-24.62464262 9.20421009 -28.55061792 10.16232107 -32.51171875 11.12109375 C-35.14861418 12.05249323 -36.30148563 12.81009154 -38 15 C-39.20049407 18.10007201 -39.20049407 18.10007201 -40 21 C-39.34 21 -38.68 21 -38 21 C-37.67 22.32 -37.34 23.64 -37 25 C-35.69675781 25.16435547 -35.69675781 25.16435547 -34.3671875 25.33203125 C-28.31674431 26.16447478 -23.36171468 26.9535712 -18 30 C-12.22989307 32.21397741 -6.29263987 33.7367602 -0.28515625 35.15625 C2 36 2 36 4 39 C6.80376352 40.12949221 6.80376352 40.12949221 10 41 C12 41.66666667 14 42.33333333 16 43 C16 43.66 16 44.32 16 45 C16.763125 44.938125 17.52625 44.87625 18.3125 44.8125 C21 45 21 45 22.8125 46.375 C24 48 24 48 24 50 C24.53625 50.268125 25.0725 50.53625 25.625 50.8125 C27.38341232 51.69170616 29.13200545 52.59061154 30.875 53.5 C34.74849778 55.35927894 38.71666845 56.6007413 42.8125 57.875 C45 59 45 59 45.8125 61.125 C45.874375 61.74375 45.93625 62.3625 46 63 C46.99 63 47.98 63 49 63 C49 63.66 49 64.32 49 65 C49.99 65 50.98 65 52 65 C52.07089844 65.59941406 52.14179688 66.19882812 52.21484375 66.81640625 C53.52744455 70.46687316 56.81104013 71.51663558 60.06640625 73.33984375 C62 75 62 75 62.27734375 77.69140625 C62.18582031 78.45324219 62.09429687 79.21507812 62 80 C58.4742012 79.4341168 55.84461263 78.56038267 52.77734375 76.7421875 C51.99037109 76.28070313 51.20339844 75.81921875 50.39257812 75.34375 C49.58240234 74.8590625 48.77222656 74.374375 47.9375 73.875 C47.15439453 73.41351563 46.37128906 72.95203125 45.56445312 72.4765625 C42.07969127 70.42238709 38.59894532 68.3635303 35.14086914 66.26464844 C28.15465418 62.07920563 21.08209979 58.61788284 13.5625 55.5 C12.44230469 55.03078125 11.32210937 54.5615625 10.16796875 54.078125 C1.45096823 50.48063272 -7.36138182 47.30297263 -16.34375 44.4375 C-17.10365234 44.19451172 -17.86355469 43.95152344 -18.64648438 43.70117188 C-20.29039747 43.21140855 -21.95038781 42.77391968 -23.61914062 42.37695312 C-29.89566921 40.80665607 -32.94127194 38.88586025 -36.5 33.5 C-36.91507812 32.91863281 -37.33015625 32.33726562 -37.7578125 31.73828125 C-41.06892268 27.070684 -43.19937356 24.03593052 -43.55859375 18.23046875 C-42.64023684 14.56346319 -40.94555213 12.25417559 -38 10 C-33.84111212 8.19479101 -29.5554076 7.00683081 -25.1875 5.8125 C-22.88872751 5.15442003 -20.59053516 4.49430971 -18.29296875 3.83203125 C-17.20677246 3.52604004 -16.12057617 3.22004883 -15.00146484 2.90478516 C-12.40267682 2.12138606 -9.93587704 1.22430536 -7.42578125 0.19921875 C-3.97091625 -1.01018097 -3.26306197 -1.05051414 0 0 Z " fill="#726011" transform="translate(139,308)"/>
<path d="M0 0 C-0.7425 0.391875 -1.485 0.78375 -2.25 1.1875 C-5.19783071 3.13038842 -6.93098611 5.16468467 -9 8 C-8.01 8.495 -8.01 8.495 -7 9 C-8.32 9.66 -9.64 10.32 -11 11 C-11 11.66 -11 12.32 -11 13 C-16.75 16 -16.75 16 -19 16 C-19.495 17.485 -19.495 17.485 -20 19 C-26.91664782 23.01993207 -35.26827354 24.38296464 -43 26 C-44.70736328 26.36931641 -44.70736328 26.36931641 -46.44921875 26.74609375 C-51.28052734 27.79026235 -56.11152058 28.82831531 -60.9609375 29.78515625 C-62.23195312 30.04167969 -63.50296875 30.29820312 -64.8125 30.5625 C-66.55466797 30.90474609 -66.55466797 30.90474609 -68.33203125 31.25390625 C-69.21246094 31.50011719 -70.09289062 31.74632812 -71 32 C-71.495 32.99 -71.495 32.99 -72 34 C-71.3702124 33.96970703 -70.7404248 33.93941406 -70.09155273 33.90820312 C-67.2069473 33.7704246 -64.32222772 33.63519307 -61.4375 33.5 C-59.9515332 33.42845703 -59.9515332 33.42845703 -58.43554688 33.35546875 C-53.28371538 33.11584868 -48.15735906 32.94213342 -43 33 C-43 32.34 -43 31.68 -43 31 C-39.36226064 29.74078253 -36.75009748 30.37498375 -33 31 C-29.66485086 31.08986929 -26.33555714 31.05932809 -23 31 C-22.67 30.34 -22.34 29.68 -22 29 C-21.34 29.165 -20.68 29.33 -20 29.5 C-17.41603544 29.93066076 -15.56704434 29.92502575 -13 29.75 C-9.34673281 29.6669712 -9.06813979 29.94321684 -6 32.5 C-5.34 33.325 -4.68 34.15 -4 35 C-4.66 36.32 -5.32 37.64 -6 39 C-6.33 38.34 -6.66 37.68 -7 37 C-9.41400129 36.49033312 -9.41400129 36.49033312 -12.25 36.3125 C-13.20390625 36.22613281 -14.1578125 36.13976562 -15.140625 36.05078125 C-17.92001466 35.88064426 -17.92001466 35.88064426 -20.234375 36.54296875 C-22.85252451 36.97562905 -24.48043876 36.87657749 -27.07275391 36.53466797 C-34.89438006 35.69998847 -42.74637109 35.87666058 -50.6015625 35.90234375 C-52.29120847 35.90421222 -53.980855 35.90563409 -55.67050171 35.90663147 C-60.08613621 35.9104229 -64.50173706 35.92022382 -68.9173584 35.93133545 C-73.43578639 35.94162266 -77.95421989 35.94614465 -82.47265625 35.95117188 C-91.3151195 35.96184959 -100.15755554 35.97888477 -109 36 C-109 35.01 -109 34.02 -109 33 C-108.36199463 32.86948242 -107.72398926 32.73896484 -107.06665039 32.60449219 C-87.09978753 28.50964485 -67.47020816 24.08000425 -48 18 C-47.15566406 17.74089844 -46.31132812 17.48179687 -45.44140625 17.21484375 C-40.99315 15.80404497 -36.93152269 14.08874812 -32.82421875 11.8671875 C-30.88949506 10.94746874 -29.08858475 10.46095718 -27 10 C-24.64811553 9.40206327 -22.31074405 8.74118205 -20 8 C-19.67 7.34 -19.34 6.68 -19 6 C-17.00773831 5.71080072 -15.01277818 5.42735449 -13.0078125 5.24609375 C-10.79670732 5.0424937 -10.79670732 5.0424937 -8 4 C-7.5359375 3.01 -7.5359375 3.01 -7.0625 2 C-6 0 -6 0 -4 -0.8125 C-2 -1 -2 -1 0 0 Z " fill="#F1D359" transform="translate(216,293)"/>
<path d="M0 0 C2.46449963 3.69674944 2.29628256 6.54615273 2.30859375 10.82421875 C2.33380986 12.42773713 2.35920682 14.03125267 2.38476562 15.63476562 C2.41315104 18.13971774 2.43717259 20.64461833 2.45629883 23.1496582 C2.57904975 36.62123462 3.85465652 49.08340948 7.75 62.0625 C9.04091279 66.49039777 9.09229303 69.53152851 8 74 C6.515 73.505 6.515 73.505 5 73 C4.505 74.485 4.505 74.485 4 76 C3.01 76 2.02 76 1 76 C1 73.69 1 71.38 1 69 C0.67 69 0.34 69 0 69 C0 53.16 0 37.32 0 21 C-1.42137965 24.55344912 -2.27321414 26.80304538 -2.78125 30.3984375 C-2.90113281 31.20796875 -3.02101563 32.0175 -3.14453125 32.8515625 C-3.26183594 33.68429688 -3.37914062 34.51703125 -3.5 35.375 C-4.31189199 41.0850096 -5.3672622 46.4539797 -7 52 C-7.34317756 54.01585039 -7.65728387 56.03693772 -7.9375 58.0625 C-8.6471298 62.57934998 -9.74802205 65.98560453 -12 70 C-12.37309899 71.65821773 -12.70700977 73.32577014 -13 75 C-16.68051371 87.05626218 -22.68848837 96.63580164 -31 106 C-31.90040793 107.07953417 -32.79717112 108.16213835 -33.6875 109.25 C-34.8321875 110.61125 -34.8321875 110.61125 -36 112 C-36.40686035 112.49160614 -36.8137207 112.98321228 -37.23291016 113.48971558 C-41.46187944 118.52896699 -46.03182949 123.17670238 -50.6875 127.8203125 C-51.50822998 128.64199921 -52.32895996 129.46368591 -53.17456055 130.31027222 C-54.90127798 132.03766691 -56.62924591 133.76381241 -58.35839844 135.48876953 C-60.99528976 138.12029933 -63.62679503 140.7571302 -66.2578125 143.39453125 C-67.94238775 145.07844577 -69.62727313 146.7620501 -71.3125 148.4453125 C-72.09391357 149.22875031 -72.87532715 150.01218811 -73.68041992 150.81936646 C-84.4509962 161.54412357 -84.4509962 161.54412357 -91 164 C-95.02400169 166.47271059 -95.02400169 166.47271059 -98.5 169.625 C-100.67964681 171.62300958 -103.20960648 172.06986883 -106 173 C-107.051875 173.721875 -108.10375 174.44375 -109.1875 175.1875 C-110.115625 175.785625 -111.04375 176.38375 -112 177 C-112.99 176.67 -113.98 176.34 -115 176 C-113 173 -113 173 -110.6875 172.125 C-107.32220277 170.71627093 -105.52978714 168.59465348 -103 166 C-101.68252676 165.30251417 -100.35085807 164.63040043 -99 164 C-98.58492187 163.56816406 -98.16984375 163.13632812 -97.7421875 162.69140625 C-95.44765795 160.46375761 -92.91671198 158.82564333 -90.25 157.0625 C-89.17492187 156.3509375 -88.09984375 155.639375 -86.9921875 154.90625 C-84.80679027 153.51398649 -82.67010366 152.24848658 -80.375 151.0625 C-71.29437974 145.51323206 -63.84250869 137.08908855 -56.75 129.25 C-53.28502672 125.43092896 -49.75603582 121.72696056 -46.0625 118.125 C-42.8195499 114.93398327 -40.41017398 111.83842523 -38 108 C-35.875 105.625 -35.875 105.625 -34 104 C-33.34 104 -32.68 104 -32 104 C-31.73058594 103.27425781 -31.46117187 102.54851562 -31.18359375 101.80078125 C-30.02169447 99.05133642 -28.66012868 96.70386679 -27.0625 94.1875 C-24.82083192 90.51832899 -23.08857736 87.02844761 -21.703125 82.96875 C-20.96023187 80.88864924 -20.06460475 78.93602438 -19.125 76.9375 C-15.06864735 67.95446616 -12.30226386 58.31076468 -9.578125 48.85546875 C-9 47 -9 47 -8 45 C-7.84146902 43.26184726 -7.72324877 41.51994359 -7.625 39.77734375 C-7.07210936 32.54549094 -5.59249106 25.62730114 -4 18.5625 C-3.45825585 16.10548583 -2.91658616 13.64845525 -2.375 11.19140625 C-2.13523437 10.12092041 -1.89546875 9.05043457 -1.6484375 7.94750977 C-1.06681601 5.30371601 -0.52053891 2.65640581 0 0 Z " fill="#F7CFD3" transform="translate(328,131)"/>
<path d="M0 0 C0.66 0.33 1.32 0.66 2 1 C2.01981934 1.87624023 2.03963867 2.75248047 2.06005859 3.65527344 C2.13904139 6.96556918 2.2257524 10.27548827 2.31738281 13.58544922 C2.35522034 15.00692184 2.39014384 16.42847561 2.421875 17.85009766 C2.60232043 25.84044669 3.0986682 33.56101035 4.56787109 41.44042969 C5.13138917 44.77823957 5.19853358 47.86745533 5.125 51.25 C5.10695313 52.34828125 5.08890625 53.4465625 5.0703125 54.578125 C5.04710937 55.37734375 5.02390625 56.1765625 5 57 C5.66 57 6.32 57 7 57 C8.64122211 83.64055167 8.64122211 83.64055167 7 91 C5.25767381 87.8321342 4.30459217 84.75468668 3.4375 81.25 C3.06431641 79.77273437 3.06431641 79.77273437 2.68359375 78.265625 C1.28026227 71.56171006 0.83212684 64.95098841 0.68359375 58.125 C0.66281265 57.31506592 0.64203156 56.50513184 0.62062073 55.6706543 C0.55586344 53.11384576 0.49658806 50.55694519 0.4375 48 C0.39424434 46.25389719 0.35062796 44.50780328 0.30664062 42.76171875 C0.20025917 38.50790391 0.09878982 34.25399764 0 30 C-0.64622041 32.41656376 -1.29199004 34.83324646 -1.9375 37.25 C-2.11990234 37.93191406 -2.30230469 38.61382812 -2.49023438 39.31640625 C-3.35053121 42.53860894 -4.20683134 45.76053223 -5 49 C-5.66 49 -6.32 49 -7 49 C-7.16435547 50.2684375 -7.16435547 50.2684375 -7.33203125 51.5625 C-8.78560127 61.96202532 -8.78560127 61.96202532 -10.5 66 C-11.94087382 69.39532644 -12.41568053 72.59277704 -12.875 76.25 C-13.80055577 82.96420116 -15.78359401 89.02078373 -19 95 C-19.99 95.495 -19.99 95.495 -21 96 C-22.12224855 97.88013106 -22.12224855 97.88013106 -23.125 100.0625 C-23.47820312 100.79597656 -23.83140625 101.52945313 -24.1953125 102.28515625 C-24.46085937 102.85105469 -24.72640625 103.41695313 -25 104 C-25.65234375 102.265625 -25.65234375 102.265625 -26 100 C-25.00390625 97.921875 -25.00390625 97.921875 -23.5625 95.75 C-20.82102444 91.18339844 -20.52216113 88.25622761 -21 83 C-21.99 83 -22.98 83 -24 83 C-23.525625 82.4225 -23.05125 81.845 -22.5625 81.25 C-20.65199656 78.49887505 -20.21988658 76.09943288 -19.5703125 72.8515625 C-18.8710297 69.35514851 -18.19436743 66.3802841 -16.5625 63.1875 C-14.18993344 58.34746422 -13.22720265 53.2305045 -12 48 C-11.39965188 45.5823819 -10.79521125 43.16577776 -10.1875 40.75 C-9.8514719 39.40236634 -9.51553956 38.0547088 -9.1796875 36.70703125 C-8.27796301 33.09775615 -7.36289729 29.49199282 -6.4453125 25.88671875 C-6.17565674 24.82163086 -5.90600098 23.75654297 -5.62817383 22.65917969 C-5.09442617 20.55102822 -4.55791414 18.44357425 -4.01831055 16.33691406 C-2.97030493 12.18589606 -1.94361045 8.0962533 -1.38671875 3.84765625 C-1 1 -1 1 0 0 Z " fill="#F69095" transform="translate(329,104)"/>
<path d="M0 0 C-5.92099392 2.80524486 -11.62914931 5.37605767 -18 7 C-18.9075 7.309375 -19.815 7.61875 -20.75 7.9375 C-24.62464262 9.20421009 -28.55061792 10.16232107 -32.51171875 11.12109375 C-35.14861418 12.05249323 -36.30148563 12.81009154 -38 15 C-39.20049407 18.10007201 -39.20049407 18.10007201 -40 21 C-39.34 21 -38.68 21 -38 21 C-37.67 22.32 -37.34 23.64 -37 25 C-35.69675781 25.16435547 -35.69675781 25.16435547 -34.3671875 25.33203125 C-28.31674431 26.16447478 -23.36171468 26.9535712 -18 30 C-12.22989307 32.21397741 -6.29263987 33.7367602 -0.28515625 35.15625 C2 36 2 36 4 39 C6.80376352 40.12949221 6.80376352 40.12949221 10 41 C12 41.66666667 14 42.33333333 16 43 C16 43.66 16 44.32 16 45 C16.763125 44.938125 17.52625 44.87625 18.3125 44.8125 C21 45 21 45 22.8125 46.375 C24 48 24 48 24 50 C24.53625 50.268125 25.0725 50.53625 25.625 50.8125 C27.38341232 51.69170616 29.13200545 52.59061154 30.875 53.5 C34.74849778 55.35927894 38.71666845 56.6007413 42.8125 57.875 C43.534375 58.24625 44.25625 58.6175 45 59 C45.63671875 61.0703125 45.63671875 61.0703125 46 63 C40.95484202 61.45018023 36.45597416 59.89036162 32 57 C30.00757511 55.9849911 28.00925805 54.98126556 26 54 C26 53.34 26 52.68 26 52 C25.3709375 51.82984375 24.741875 51.6596875 24.09375 51.484375 C19.07349426 50.06297729 14.54399522 48.41521319 9.9375 45.97265625 C7.31745188 44.65734984 4.60917339 43.69970478 1.8515625 42.71484375 C0 42 0 42 -2.75 40.5 C-6.78738242 38.63659273 -10.85109644 37.77058025 -15.16796875 36.75390625 C-18.37935542 35.89901297 -21.0761214 34.56393507 -24 33 C-27.87887778 31.66002404 -30.51575245 30.95825452 -34.625 31.3125 C-38 31 -38 31 -39.55078125 29.73046875 C-42.00395579 26.66918334 -43.34456735 23.87113633 -43.625 19.9375 C-42.89550813 15.34170121 -41.63716749 12.81006884 -38 10 C-33.8418991 8.19315281 -29.55530293 7.00680219 -25.1875 5.8125 C-22.88872751 5.15442003 -20.59053516 4.49430971 -18.29296875 3.83203125 C-17.20677246 3.52604004 -16.12057617 3.22004883 -15.00146484 2.90478516 C-12.40267682 2.12138606 -9.93587704 1.22430536 -7.42578125 0.19921875 C-3.97091625 -1.01018097 -3.26306197 -1.05051414 0 0 Z " fill="#B88F04" transform="translate(139,308)"/>
<path d="M0 0 C0 9.0757434 -5.80943443 16.58937841 -11.9140625 22.74609375 C-14.05329297 24.8922649 -14.05329297 24.8922649 -15.37406921 27.36938477 C-17.05345284 30.08648206 -18.84334515 32.0907246 -21.10083008 34.34375 C-22.33274834 35.5802832 -22.33274834 35.5802832 -23.58955383 36.84179688 C-24.47394638 37.71900391 -25.35833893 38.59621094 -26.26953125 39.5 C-27.18329025 40.41330078 -28.09704926 41.32660156 -29.03849792 42.26757812 C-30.96960796 44.19712818 -32.90401624 46.12328662 -34.84106445 48.046875 C-37.31061923 50.49947677 -39.77357711 52.95857272 -42.23428822 55.42004395 C-44.59741438 57.78283094 -46.96478053 60.14134508 -49.33203125 62.5 C-50.2103511 63.37720703 -51.08867096 64.25441406 -51.99360657 65.15820312 C-63.47775845 76.55415942 -63.47775845 76.55415942 -70 79 C-74.02400169 81.47271059 -74.02400169 81.47271059 -77.5 84.625 C-79.67964681 86.62300958 -82.20960648 87.06986883 -85 88 C-86.5778125 89.0828125 -86.5778125 89.0828125 -88.1875 90.1875 C-89.115625 90.785625 -90.04375 91.38375 -91 92 C-91.99 91.67 -92.98 91.34 -94 91 C-92 88 -92 88 -89.6875 87.125 C-86.32220277 85.71627093 -84.52978714 83.59465348 -82 81 C-80.68252676 80.30251417 -79.35085807 79.63040043 -78 79 C-77.37738281 78.35224609 -77.37738281 78.35224609 -76.7421875 77.69140625 C-74.44765795 75.46375761 -71.91671198 73.82564333 -69.25 72.0625 C-67.63738281 70.99515625 -67.63738281 70.99515625 -65.9921875 69.90625 C-63.80679027 68.51398649 -61.67010366 67.24848658 -59.375 66.0625 C-50.29437974 60.51323206 -42.84250869 52.08908855 -35.75 44.25 C-32.28502672 40.43092896 -28.75603582 36.72696056 -25.0625 33.125 C-21.8195499 29.93398327 -19.41017398 26.83842523 -17 23 C-14.875 20.625 -14.875 20.625 -13 19 C-12.34 19 -11.68 19 -11 19 C-10.75378906 18.31421875 -10.50757813 17.6284375 -10.25390625 16.921875 C-8.7828658 13.49402996 -6.9157029 10.39955382 -4.9375 7.25 C-4.57333984 6.66089844 -4.20917969 6.07179687 -3.83398438 5.46484375 C-1.15223689 1.15223689 -1.15223689 1.15223689 0 0 Z " fill="#E9D6D7" transform="translate(307,216)"/>
<path d="M0 0 C0.99 0.495 0.99 0.495 2 1 C1.34 1.66 0.68 2.32 0 3 C0 3.99 0 4.98 0 6 C-3.35363955 10.1654716 -7.66213203 13.90152288 -12 17 C-12.66 17 -13.32 17 -14 17 C-14.32871094 17.86625 -14.32871094 17.86625 -14.6640625 18.75 C-16.42124124 21.70945893 -18.54585732 23.05828277 -21.375 25 C-24.22152282 26.96417747 -26.79189729 28.78970673 -29.2265625 31.25 C-31 33 -31 33 -33 33 C-33.33 33.99 -33.66 34.98 -34 36 C-38.33333333 39 -38.33333333 39 -41 39 C-41.20625 39.598125 -41.4125 40.19625 -41.625 40.8125 C-43.51995233 43.82719689 -45.80346912 44.5295958 -49 46 C-49.62390625 46.49242187 -50.2478125 46.98484375 -50.890625 47.4921875 C-53.20907491 49.14944984 -55.13529428 49.81569548 -57.875 50.5625 C-58.75542969 50.81 -59.63585937 51.0575 -60.54296875 51.3125 C-61.35378906 51.539375 -62.16460937 51.76625 -63 52 C-64.5778125 52.5259375 -64.5778125 52.5259375 -66.1875 53.0625 C-69.43467215 54.14489072 -72.70413017 55.07715645 -76 56 C-76 55.34 -76 54.68 -76 54 C-75.38511719 53.81824219 -74.77023438 53.63648438 -74.13671875 53.44921875 C-73.32847656 53.19785156 -72.52023438 52.94648438 -71.6875 52.6875 C-70.88699219 52.44386719 -70.08648437 52.20023437 -69.26171875 51.94921875 C-66.85895079 50.94080318 -65.74125577 49.89733472 -64 48 C-61 46 -61 46 -58 46 C-58 45.34 -58 44.68 -58 44 C-54.37896569 41.88772999 -50.76152899 39.85137755 -47 38 C-39.3703934 34.38859844 -39.3703934 34.38859844 -33 29 C-28.45336788 24.22020725 -28.45336788 24.22020725 -25.8125 22.9375 C-23.82107843 22.13297839 -23.82107843 22.13297839 -23 20 C-21.71919608 17.43839216 -20.5434419 17.23538607 -18 16 C-16.31002677 14.35697047 -14.64783606 12.68528688 -13 11 C-8.7891987 7.1828915 -4.47931971 3.49946852 0 0 Z " fill="#D9B39E" transform="translate(263,260)"/>
<path d="M0 0 C1.67013418 0.65793165 3.3357865 1.32723284 5 2 C5.61230469 2.22945313 6.22460938 2.45890625 6.85546875 2.6953125 C8.60506322 3.38072064 10.30649294 4.18581391 12 5 C12.33 5.99 12.66 6.98 13 8 C15.44043164 10.0964292 15.44043164 10.0964292 18.375 12.125 C19.35210937 12.82882812 20.32921875 13.53265625 21.3359375 14.2578125 C23.93779866 16.12069384 23.93779866 16.12069384 27 17 C28.77013511 18.61840925 30.37687493 20.24092791 32 22 C32.69351563 22.74636719 33.38703125 23.49273437 34.1015625 24.26171875 C40 30.73332597 40 30.73332597 40 33 C40.58265625 33.26167969 41.1653125 33.52335937 41.765625 33.79296875 C45.49972219 35.81016461 48.3995162 38.66163788 51 42 C51.4375 44.9375 51.4375 44.9375 51 47 C48 47 48 47 46.34375 45.56640625 C45.7353125 44.90511719 45.126875 44.24382812 44.5 43.5625 C39.69113633 38.56901817 34.40113413 34.33123734 29 30 C27.14541849 28.4588324 25.29124719 26.91717104 23.4375 25.375 C18.47354463 21.30512881 13.31970885 17.58878406 8 14 C8.66 13.67 9.32 13.34 10 13 C9.69806332 9.76653268 9.47327575 8.39633489 6.93359375 6.26953125 C6.10988281 5.78871094 5.28617188 5.30789063 4.4375 4.8125 C2.93004548 3.92119694 1.44215915 2.99348742 0 2 C0 1.34 0 0.68 0 0 Z " fill="#427841" transform="translate(191,375)"/>
<path d="M0 0 C-1.051875 0.5259375 -1.051875 0.5259375 -2.125 1.0625 C-4.76065814 2.8387044 -5.80329042 3.969719 -7.625 6.4375 C-11.37356132 11.05713693 -16.36355673 12.57540445 -22 14 C-22.99 14 -23.98 14 -25 14 C-25 14.66 -25 15.32 -25 16 C-30.18962884 17.88053424 -35.39258703 18.87363142 -40.81445312 19.76757812 C-44.35988789 20.38880145 -47.69681351 21.18085623 -51.09765625 22.3671875 C-57.48865109 24.58407886 -64.05562131 26.09824122 -70.625 27.6875 C-71.92191265 28.01091678 -73.21878789 28.33448359 -74.515625 28.65820312 C-76.38347656 29.11163086 -76.38347656 29.11163086 -78.2890625 29.57421875 C-79.41006348 29.84838623 -80.53106445 30.12255371 -81.68603516 30.4050293 C-85.18976731 31.03406976 -88.44779674 31.10275433 -92 31 C-92 31.66 -92 32.32 -92 33 C-94.97 33.495 -94.97 33.495 -98 34 C-97.34 34.66 -96.68 35.32 -96 36 C-100.29 36 -104.58 36 -109 36 C-109 35.01 -109 34.02 -109 33 C-108.36199463 32.86948242 -107.72398926 32.73896484 -107.06665039 32.60449219 C-87.09978753 28.50964485 -67.47020816 24.08000425 -48 18 C-47.15566406 17.74089844 -46.31132812 17.48179687 -45.44140625 17.21484375 C-40.99315 15.80404497 -36.93152269 14.08874812 -32.82421875 11.8671875 C-30.88949506 10.94746874 -29.08858475 10.46095718 -27 10 C-24.64811553 9.40206327 -22.31074405 8.74118205 -20 8 C-19.67 7.34 -19.34 6.68 -19 6 C-17.00773831 5.71080072 -15.01277818 5.42735449 -13.0078125 5.24609375 C-10.79670732 5.0424937 -10.79670732 5.0424937 -8 4 C-7.5359375 3.01 -7.5359375 3.01 -7.0625 2 C-6 0 -6 0 -4 -0.8125 C-2 -1 -2 -1 0 0 Z " fill="#EABC44" transform="translate(216,293)"/>
<path d="M0 0 C0.33 0 0.66 0 1 0 C1.125 7.625 1.125 7.625 0 11 C-0.2313818 13.9308362 -0.38038235 16.86047985 -0.5234375 19.796875 C-1.08500495 23.57134472 -2.45671846 26.51713747 -4 30 C-4.68892668 32.44660653 -5.33444159 34.90582523 -5.9375 37.375 C-7.39697869 43.11201606 -8.91372633 48.89079065 -12 54 C-12.99 54.495 -12.99 54.495 -14 55 C-15.01035486 56.72049 -15.96002724 58.47694398 -16.875 60.25 C-18.96527388 64.19602922 -21.15856904 67.54969098 -24 71 C-24.28101563 71.76957031 -24.56203125 72.53914063 -24.8515625 73.33203125 C-26.17720861 76.41167851 -27.85368947 78.35801927 -30.125 80.8125 C-30.84945313 81.60269531 -31.57390625 82.39289063 -32.3203125 83.20703125 C-32.87460937 83.79871094 -33.42890625 84.39039063 -34 85 C-34.66 84.67 -35.32 84.34 -36 84 C-35.23302204 82.58124235 -34.46123222 81.16508548 -33.6875 79.75 C-33.04361328 78.56664062 -33.04361328 78.56664062 -32.38671875 77.359375 C-31.05872525 75.09991564 -29.5807074 73.0863638 -28 71 C-27.00902971 69.24182691 -26.01855979 67.48334054 -25.0390625 65.71875 C-24 64 -24 64 -21.9375 61.5625 C-19.81836471 58.75977268 -18.86341817 56.22219996 -17.71875 52.9375 C-16.7745551 50.39227897 -15.58305258 48.20250793 -14 46 C-13.34 46 -12.68 46 -12 46 C-11.87496094 45.44183594 -11.74992187 44.88367188 -11.62109375 44.30859375 C-10.94584575 41.79870968 -10.02454872 39.47669772 -9.0625 37.0625 C-7.09692466 31.76675924 -6.24152947 26.6511852 -5.49609375 21.0703125 C-4.93180732 17.57795708 -3.9409449 14.45644317 -2.73046875 11.14453125 C-1.4920849 7.50884819 -0.75573265 3.7608813 0 0 Z M-37 85 C-37 88.98220896 -38.32208355 89.80602572 -41 92.6875 C-41.81597656 93.56921875 -42.63195312 94.4509375 -43.47265625 95.359375 C-46.38371668 98.40091573 -49.34564547 101.38093774 -52.37109375 104.30859375 C-54.19975192 106.10719897 -54.19975192 106.10719897 -56 109 C-56.66 108.67 -57.32 108.34 -58 108 C-58 107.34 -58 106.68 -58 106 C-56.42578125 104.484375 -56.42578125 104.484375 -54.3125 102.75 C-50.74663606 99.724038 -47.92488753 96.63634666 -45 93 C-43.35305515 91.31384218 -41.68873879 89.64429829 -40 88 C-39.401875 87.401875 -38.80375 86.80375 -38.1875 86.1875 C-37.795625 85.795625 -37.40375 85.40375 -37 85 Z M-59 109 C-58.67 109.66 -58.34 110.32 -58 111 C-58.66 110.67 -59.32 110.34 -60 110 C-59.67 109.67 -59.34 109.34 -59 109 Z " fill="#E5A5B0" transform="translate(322,153)"/>
<path d="M0 0 C0.66 1.32 1.32 2.64 2 4 C-2.75 8 -2.75 8 -5 8 C-5.33 8.99 -5.66 9.98 -6 11 C-7.65848177 12.01351664 -9.32665961 13.01120795 -11 14 C-12.70884005 15.62339805 -14.37446717 17.29319053 -16 19 C-17.62836738 20.7041054 -19.28769752 22.38025441 -21 24 C-21.66 24 -22.32 24 -23 24 C-23.33 24.99 -23.66 25.98 -24 27 C-30.76589414 32.0047553 -37.6380938 35.09351017 -46 36 C-45.0919838 34.86800647 -44.17316174 33.74467637 -43.25 32.625 C-42.48429688 31.68527344 -42.48429688 31.68527344 -41.703125 30.7265625 C-40 29 -40 29 -38.109375 28.0859375 C-35.17653608 26.57606858 -33.29477481 24.35688901 -31 22 C-29.16765416 20.41196694 -27.31321122 18.84907011 -25.4375 17.3125 C-24.50808594 16.54550781 -23.57867187 15.77851563 -22.62109375 14.98828125 C-20.42939725 13.32572757 -18.48924113 12.12123146 -16 11 C-12.37066111 8.95268063 -9.24184625 6.60929089 -6 4 C-4.02317592 2.62746574 -2.0171138 1.31346945 0 0 Z " fill="#D8A37E" transform="translate(251,266)"/>
<path d="M0 0 C-12.62024693 7.77611174 -25.23764637 12.75616607 -39.36279297 17.15673828 C-45.63836018 19.16338604 -51.72704918 21.65818083 -57.8203125 24.15625 C-58.70460938 24.5171875 -59.58890625 24.878125 -60.5 25.25 C-61.2528125 25.56453125 -62.005625 25.8790625 -62.78125 26.203125 C-65.16705038 27.05999697 -67.50630945 27.56096997 -70 28 C-70 27.34 -70 26.68 -70 26 C-49.8780985 14.45570395 -28.22913452 6.46936564 -6 0 C-5.27780273 -0.21648193 -4.55560547 -0.43296387 -3.81152344 -0.65600586 C-2 -1 -2 -1 0 0 Z " fill="#2283D4" transform="translate(557,338)"/>
<path d="M0 0 C0.33 0 0.66 0 1 0 C1.01981934 0.75506836 1.03963867 1.51013672 1.06005859 2.28808594 C1.15649239 5.77568593 1.26568279 9.26278097 1.375 12.75 C1.4059375 13.93722656 1.436875 15.12445313 1.46875 16.34765625 C1.69222456 23.16363032 2.34072371 29.6637958 3.56787109 36.37011719 C4.1205051 39.73337908 4.19903897 42.84420725 4.125 46.25 C4.10695313 47.34828125 4.08890625 48.4465625 4.0703125 49.578125 C4.03550781 50.77695313 4.03550781 50.77695313 4 52 C4.66 52 5.32 52 6 52 C7.64122211 78.64055167 7.64122211 78.64055167 6 86 C4.25767381 82.8321342 3.30459217 79.75468668 2.4375 76.25 C2.18871094 75.26515625 1.93992187 74.2803125 1.68359375 73.265625 C-0.10884788 64.70287526 -0.13189829 56.37971747 -0.09765625 47.65625 C-0.09578788 46.27762911 -0.09436596 44.89900754 -0.09336853 43.52038574 C-0.08957635 39.916851 -0.07977478 36.31335748 -0.06866455 32.70983887 C-0.05837896 29.02271075 -0.05385569 25.33557588 -0.04882812 21.6484375 C-0.03814909 14.43227301 -0.02111299 7.21614231 0 0 Z " fill="#E59CA9" transform="translate(330,109)"/>
<path d="M0 0 C0.66 0.165 1.32 0.33 2 0.5 C4.58396456 0.93066076 6.43295566 0.92502575 9 0.75 C12.65326719 0.6669712 12.93186021 0.94321684 16 3.5 C16.66 4.325 17.32 5.15 18 6 C17.34 7.32 16.68 8.64 16 10 C15.505 9.01 15.505 9.01 15 8 C12.58599871 7.49033312 12.58599871 7.49033312 9.75 7.3125 C8.79609375 7.22613281 7.8421875 7.13976562 6.859375 7.05078125 C4.05420004 7.00096257 1.73491808 7.43967532 -1 8 C-3.04296875 7.87890625 -3.04296875 7.87890625 -5.1875 7.5625 C-8.65532345 7.13754735 -12.02374033 6.97809469 -15.51171875 7.03515625 C-16.31134033 7.04796631 -17.11096191 7.06077637 -17.93481445 7.07397461 C-19.54174076 7.10757617 -21.14846234 7.15364675 -22.75463867 7.21313477 C-27.66370836 7.30980535 -28.88342593 7.08743055 -33 4 C-29.04 4 -25.08 4 -21 4 C-21 3.34 -21 2.68 -21 2 C-17.36226064 0.74078253 -14.75009748 1.37498375 -11 2 C-7.66485086 2.08986929 -4.33555714 2.05932809 -1 2 C-0.67 1.34 -0.34 0.68 0 0 Z " fill="#E5DA8D" transform="translate(194,322)"/>
<path d="M0 0 C0.66 0.33 1.32 0.66 2 1 C1.67 1.66 1.34 2.32 1 3 C0.59172761 6.41835336 0.23607344 9.83524734 -0.07421875 13.26367188 C-0.56655157 17.98255678 -1.62763282 22.06391036 -3.21533203 26.5246582 C-5.10082545 32.47270355 -5.97689296 38.72253502 -7.10546875 44.84960938 C-8.2553582 50.88103588 -9.72715422 56.30240296 -12 62 C-12.5155387 63.97000539 -12.99835436 65.94907035 -13.4375 67.9375 C-16.06653865 78.67160597 -16.06653865 78.67160597 -19 83 C-21.75 84.0625 -21.75 84.0625 -24 84 C-23.525625 83.2575 -23.05125 82.515 -22.5625 81.75 C-20.85778212 78.74969654 -20.24049165 76.20245826 -19.5703125 72.8515625 C-18.8710297 69.35514851 -18.19436743 66.3802841 -16.5625 63.1875 C-14.18993344 58.34746422 -13.22720265 53.2305045 -12 48 C-11.39965188 45.5823819 -10.79521125 43.16577776 -10.1875 40.75 C-9.8514719 39.40236634 -9.51553956 38.0547088 -9.1796875 36.70703125 C-8.27796301 33.09775615 -7.36289729 29.49199282 -6.4453125 25.88671875 C-6.17565674 24.82163086 -5.90600098 23.75654297 -5.62817383 22.65917969 C-5.09442617 20.55102822 -4.55791414 18.44357425 -4.01831055 16.33691406 C-2.97030493 12.18589606 -1.94361045 8.0962533 -1.38671875 3.84765625 C-1 1 -1 1 0 0 Z " fill="#F36F77" transform="translate(329,104)"/>
<path d="M0 0 C0.33 0 0.66 0 1 0 C1.01458252 1.03705078 1.02916504 2.07410156 1.04418945 3.14257812 C1.10313185 7.07176486 1.18033631 11.00043426 1.26245117 14.92919922 C1.29525768 16.61433377 1.32341961 18.29956658 1.34643555 19.98486328 C1.53554817 33.48026182 2.84809223 46.06577225 6.75 59.0625 C8.04091279 63.49039777 8.09229303 66.53152851 7 71 C6.01 70.67 5.02 70.34 4 70 C3.67 70.99 3.34 71.98 3 73 C2.01 73 1.02 73 0 73 C0 70.69 0 68.38 0 66 C-0.33 66 -0.66 66 -1 66 C-0.67 44.22 -0.34 22.44 0 0 Z " fill="#F0C8CF" transform="translate(329,134)"/>
<path d="M0 0 C0.33 0 0.66 0 1 0 C1.56930746 6.26238209 0.50555932 9.56448189 -2.76953125 14.89453125 C-4.16840377 17.11355176 -4.16840377 17.11355176 -5.0625 20.3125 C-6.1637542 23.46942872 -7.65375249 24.65375249 -10 27 C-11.08341731 29.06539106 -12.04730756 31.15235525 -12.97265625 33.29296875 C-14 35 -14 35 -17 36 C-17.28875 36.5775 -17.5775 37.155 -17.875 37.75 C-20.49627449 42.99254898 -25.99703306 46.88505804 -30.3125 50.8125 C-30.86228516 51.31458984 -31.41207031 51.81667969 -31.97851562 52.33398438 C-33.31805239 53.55703968 -34.65888992 54.77867008 -36 56 C-36 52.38834178 -35.38246609 51.6289281 -33 49 C-32.24203125 48.58234375 -31.4840625 48.1646875 -30.703125 47.734375 C-22.99176969 42.7866268 -15.69434307 32.64781023 -13.0625 23.875 C-11.75047188 20.32480626 -9.68428772 18.61545983 -7 16 C-6.61647646 14.68022783 -6.28995002 13.3434351 -6 12 C-5.38166878 10.28152103 -4.73422359 8.57332002 -4.0625 6.875 C-3.72347656 6.00617188 -3.38445312 5.13734375 -3.03515625 4.2421875 C-2 2 -2 2 0 0 Z " fill="#E27F88" transform="translate(308,187)"/>
<path d="M0 0 C-7.84512699 3.97758944 -15.3991438 6.2718834 -24 8 C-26.31287996 8.49823945 -28.62537605 8.99826393 -30.9375 9.5 C-34.60730951 10.28756586 -38.27864052 11.05860034 -41.9609375 11.78515625 C-43.23195312 12.04167969 -44.50296875 12.29820312 -45.8125 12.5625 C-46.97394531 12.79066406 -48.13539063 13.01882813 -49.33203125 13.25390625 C-50.21246094 13.50011719 -51.09289062 13.74632812 -52 14 C-52.33 14.66 -52.66 15.32 -53 16 C-59.27 16 -65.54 16 -72 16 C-63.55973271 11.77986635 -54.27522935 9.84594233 -44.97265625 8.56640625 C-39.48379787 7.8105974 -34.02589435 6.85637704 -28.5625 5.9375 C-26.50130526 5.59242894 -24.44010749 5.24737598 -22.37890625 4.90234375 C-21.44062988 4.74491699 -20.50235352 4.58749023 -19.53564453 4.42529297 C-16.690772 3.94813449 -13.84549436 3.4734356 -11 3 C-11 2.34 -11 1.68 -11 1 C-4.03571429 -1.27678571 -4.03571429 -1.27678571 0 0 Z " fill="#F2DA8A" transform="translate(197,311)"/>
<path d="M0 0 C0.66 0.33 1.32 0.66 2 1 C0.35 1.66 -1.3 2.32 -3 3 C-2.01 2.01 -1.02 1.02 0 0 Z M-4 3 C-4 3.99 -4 4.98 -4 6 C-8.22222222 9 -8.22222222 9 -11 9 C-11.20625 9.598125 -11.4125 10.19625 -11.625 10.8125 C-13.51995233 13.82719689 -15.80346912 14.5295958 -19 16 C-19.62390625 16.49242187 -20.2478125 16.98484375 -20.890625 17.4921875 C-23.20907491 19.14944984 -25.13529428 19.81569548 -27.875 20.5625 C-28.75542969 20.81 -29.63585937 21.0575 -30.54296875 21.3125 C-31.35378906 21.539375 -32.16460937 21.76625 -33 22 C-34.5778125 22.5259375 -34.5778125 22.5259375 -36.1875 23.0625 C-39.43467215 24.14489072 -42.70413017 25.07715645 -46 26 C-46 25.34 -46 24.68 -46 24 C-45.38511719 23.81824219 -44.77023438 23.63648438 -44.13671875 23.44921875 C-43.32847656 23.19785156 -42.52023438 22.94648438 -41.6875 22.6875 C-40.48673828 22.32205078 -40.48673828 22.32205078 -39.26171875 21.94921875 C-36.85895079 20.94080318 -35.74125577 19.89733472 -34 18 C-31 16 -31 16 -28 16 C-28 15.34 -28 14.68 -28 14 C-22.90462302 11.00271942 -18.24383062 8.60102606 -12.5 7.0625 C-9.23901118 6.07255697 -6.81927271 4.87951514 -4 3 Z " fill="#EADCAF" transform="translate(233,290)"/>
<path d="M0 0 C-8.98424903 4.6584995 -18.76093432 6.75036903 -28.53369141 9.14160156 C-29.84539827 9.46407233 -31.15627827 9.78992516 -32.46630859 10.11914062 C-34.38183419 10.60029842 -36.30027671 11.06979565 -38.21875 11.5390625 C-39.9193457 11.95986084 -39.9193457 11.95986084 -41.65429688 12.38916016 C-45.17239903 13.03147565 -48.43164397 13.10591787 -52 13 C-52 13.66 -52 14.32 -52 15 C-53.98 15.33 -55.96 15.66 -58 16 C-57.34 16.66 -56.68 17.32 -56 18 C-60.29 18 -64.58 18 -69 18 C-69 17.01 -69 16.02 -69 15 C-68.36199463 14.86948242 -67.72398926 14.73896484 -67.06665039 14.60449219 C-49.26681941 10.95406443 -31.57618421 7.26139284 -14.1875 1.9375 C-13.06730469 1.59589844 -11.94710937 1.25429688 -10.79296875 0.90234375 C-6.40542986 -0.51516882 -4.68177536 -0.91599953 0 0 Z " fill="#F6C932" transform="translate(176,311)"/>
<path d="M0 0 C-5.92099392 2.80524486 -11.62914931 5.37605767 -18 7 C-18.9075 7.309375 -19.815 7.61875 -20.75 7.9375 C-24.62464262 9.20421009 -28.55061792 10.16232107 -32.51171875 11.12109375 C-35.14861418 12.05249323 -36.30148563 12.81009154 -38 15 C-39.20049407 18.10007201 -39.20049407 18.10007201 -40 21 C-39.34 21 -38.68 21 -38 21 C-37.67 22.32 -37.34 23.64 -37 25 C-37.99 25 -38.98 25 -40 25 C-40.33 24.34 -40.66 23.68 -41 23 C-41.66 23.33 -42.32 23.66 -43 24 C-43.59914894 17.04987234 -43.59914894 17.04987234 -41.28125 12.98828125 C-37.16107965 8.38033989 -30.93692339 7.38458305 -25.1875 5.8125 C-22.88872751 5.15442003 -20.59053516 4.49430971 -18.29296875 3.83203125 C-17.20677246 3.52604004 -16.12057617 3.22004883 -15.00146484 2.90478516 C-12.40267682 2.12138606 -9.93587704 1.22430536 -7.42578125 0.19921875 C-3.97091625 -1.01018097 -3.26306197 -1.05051414 0 0 Z " fill="#DBB223" transform="translate(139,308)"/>
<path d="M0 0 C0 7.00774992 -7.7167902 13.65670573 -12.375 18.4375 C-13.24125 19.283125 -14.1075 20.12875 -15 21 C-15.58523438 21.60714844 -16.17046875 22.21429688 -16.7734375 22.83984375 C-22.83611852 29.08224852 -29.33166987 34.7947867 -37 39 C-36.44988438 35.23254152 -34.97622408 33.69390636 -32.125 31.25 C-31.42632812 30.63640625 -30.72765625 30.0228125 -30.0078125 29.390625 C-28 28 -28 28 -25 28 C-24.73662842 27.40993164 -24.47325684 26.81986328 -24.2019043 26.21191406 C-22.94798348 23.90427185 -21.64804739 22.43272606 -19.76953125 20.609375 C-19.13418457 19.98562988 -18.49883789 19.36188477 -17.84423828 18.71923828 C-17.17376465 18.06938965 -16.50329102 17.41954102 -15.8125 16.75 C-10.64745081 11.67330518 -5.64331121 6.5653872 -1 1 C-0.67 0.67 -0.34 0.34 0 0 Z " fill="#DA9C99" transform="translate(289,230)"/>
<path d="M0 0 C0.33 0 0.66 0 1 0 C1.125 7.625 1.125 7.625 0 11 C-0.2313818 13.9308362 -0.38038235 16.86047985 -0.5234375 19.796875 C-1.08500495 23.57134472 -2.45671846 26.51713747 -4 30 C-4.68892668 32.44660653 -5.33444159 34.90582523 -5.9375 37.375 C-7.41870162 43.24233353 -9.33049924 48.56565916 -12 54 C-14.2041694 47.7598177 -11.05023411 40.31051504 -8.4375 34.5625 C-6.65823811 30.15302487 -6.17550722 25.90327755 -5.53125 21.2109375 C-4.94525873 17.6691373 -3.95864284 14.50486544 -2.73046875 11.14453125 C-1.4920849 7.50884819 -0.75573265 3.7608813 0 0 Z " fill="#F7B8BD" transform="translate(322,153)"/>
<path d="M0 0 C0.66 0.66 1.32 1.32 2 2 C0.61068357 3.44379943 -0.78676578 4.87977512 -2.1875 6.3125 C-2.96480469 7.11300781 -3.74210937 7.91351563 -4.54296875 8.73828125 C-6.91342108 10.92030335 -9.20937214 12.41588122 -12 14 C-12.886875 14.721875 -13.77375 15.44375 -14.6875 16.1875 C-17 18 -17 18 -19 18 C-19.2475 18.61230469 -19.495 19.22460938 -19.75 19.85546875 C-21.227141 22.38968878 -22.37933646 23.06479438 -25 24.3125 C-25.70125 24.65925781 -26.4025 25.00601562 -27.125 25.36328125 C-28.053125 25.67845703 -28.053125 25.67845703 -29 26 C-29.66 25.67 -30.32 25.34 -31 25 C-27.85698393 21.67738301 -24.89734291 19.33840575 -21 17 C-19.33051087 15.33616058 -17.66424946 13.66908037 -16 12 C-14.16765416 10.41196694 -12.31321122 8.84907011 -10.4375 7.3125 C-9.50808594 6.54550781 -8.57867187 5.77851563 -7.62109375 4.98828125 C-5.43730382 3.33172525 -3.4712666 2.13756717 -1 1 C-0.67 0.67 -0.34 0.34 0 0 Z " fill="#DAA76A" transform="translate(236,276)"/>
<path d="M0 0 C0.33 0 0.66 0 1 0 C1.04939662 3.95096978 1.08571755 7.9018203 1.10986328 11.85302734 C1.12488107 13.8591136 1.15028981 15.86511324 1.17578125 17.87109375 C1.18222656 19.12792969 1.18867188 20.38476562 1.1953125 21.6796875 C1.20578613 22.84226074 1.21625977 24.00483398 1.22705078 25.20263672 C1 28 1 28 -1 30 C-1.64021247 31.82585961 -1.64021247 31.82585961 -2.0703125 33.9140625 C-2.24433594 34.67460937 -2.41835938 35.43515625 -2.59765625 36.21875 C-2.77167969 37.0128125 -2.94570313 37.806875 -3.125 38.625 C-3.30675781 39.42679688 -3.48851562 40.22859375 -3.67578125 41.0546875 C-4.12370789 43.03499476 -4.56270604 45.0173177 -5 47 C-5.33 47 -5.66 47 -6 47 C-6.3336134 37.26343103 -6.26057274 28.34247008 -3 19 C-2.67 18.67 -2.34 18.34 -2 18 C-1.77486899 16.66197814 -1.60639193 15.31426977 -1.46484375 13.96484375 C-1.37783203 13.15595703 -1.29082031 12.34707031 -1.20117188 11.51367188 C-1.0706543 10.2384668 -1.0706543 10.2384668 -0.9375 8.9375 C-0.84662109 8.08349609 -0.75574219 7.22949219 -0.66210938 6.34960938 C-0.43749278 4.23348465 -0.21824773 2.11679106 0 0 Z " fill="#FBA2A6" transform="translate(329,106)"/>
<path d="M0 0 C-1.98 0.99 -1.98 0.99 -4 2 C-4 2.66 -4 3.32 -4 4 C-10.17049986 7.30161811 -15.85352936 10 -23 10 C-23 10.66 -23 11.32 -23 12 C-30.89955168 14.91036115 -38.60156203 16.31105326 -47 16 C-47 15.67 -47 15.34 -47 15 C-46.42894531 14.91363281 -45.85789063 14.82726562 -45.26953125 14.73828125 C-38.83801967 13.62375858 -33.10160859 11.6209878 -27.078125 9.12109375 C-24.03675769 8.01338764 -21.20150027 7.42654719 -18 7 C-18 6.34 -18 5.68 -18 5 C-15.37831689 3.96983978 -12.75326119 2.95061606 -10.125 1.9375 C-9.37863281 1.64294922 -8.63226563 1.34839844 -7.86328125 1.04492188 C-2.2265625 -1.11328125 -2.2265625 -1.11328125 0 0 Z " fill="#EDCB6B" transform="translate(209,302)"/>
<path d="M0 0 C0.578125 1.85546875 0.578125 1.85546875 1 4 C-0.25 6.3125 -0.25 6.3125 -2 9 C-2.4125 10.010625 -2.825 11.02125 -3.25 12.0625 C-5.55868888 17.6782297 -8.88620525 22.80465478 -12 28 C-12.66 27.67 -13.32 27.34 -14 27 C-13.71125 26.484375 -13.4225 25.96875 -13.125 25.4375 C-11.86837493 22.91842258 -11.86837493 22.91842258 -11.1875 19.6875 C-10.00651441 16.02022897 -8.66766376 13.90563063 -6.375 10.91015625 C-3.90583463 7.47998049 -1.98481189 3.72468954 0 0 Z M-15 28 C-15 31 -15 31 -17.0625 33.1875 C-17.51753906 33.61289063 -17.97257812 34.03828125 -18.44140625 34.4765625 C-20.25118627 36.24552041 -21.86180335 38.13394464 -23.5 40.0625 C-26.10890999 43.08244177 -28.75781405 45.64204658 -32 48 C-31.45338858 44.26346222 -30.10543659 42.93119849 -27.1875 40.625 C-23.70178941 37.72956126 -21.44208027 34.83755471 -19 31 C-16.75 29.125 -16.75 29.125 -15 28 Z " fill="#E8C2CA" transform="translate(308,207)"/>
<path d="M0 0 C0.66 0.33 1.32 0.66 2 1 C1.48050781 1.44730469 0.96101563 1.89460938 0.42578125 2.35546875 C-4.45134046 6.58350956 -9.09630309 10.90105212 -13.4375 15.6875 C-16.2799708 18.25265657 -18.37866121 18.8914269 -22 20 C-23.051875 20.721875 -24.10375 21.44375 -25.1875 22.1875 C-26.115625 22.785625 -27.04375 23.38375 -28 24 C-28.99 23.67 -29.98 23.34 -31 23 C-29 20 -29 20 -26.6875 19.125 C-23.32220277 17.71627093 -21.52978714 15.59465348 -19 13 C-17.68252676 12.30251417 -16.35085807 11.63040043 -15 11 C-14.59394531 10.57332031 -14.18789062 10.14664062 -13.76953125 9.70703125 C-11.34438202 7.36753851 -8.62769638 5.65902666 -5.8125 3.8125 C-4.72582031 3.09707031 -3.63914063 2.38164062 -2.51953125 1.64453125 C-1.68808594 1.10183594 -0.85664063 0.55914062 0 0 Z " fill="#E4D8C0" transform="translate(244,284)"/>
<path d="M0 0 C0.703125 1.7265625 0.703125 1.7265625 1 4 C-0.328125 6.1484375 -0.328125 6.1484375 -2.25 8.375 C-4.36759391 10.92942566 -5.99771443 12.99523011 -7.4375 16 C-10.14906475 21.20620432 -14.3094587 27.1031529 -20 29 C-19.49114916 24.54755513 -18.02553334 22.27084685 -15 19 C-14.05125 18.29875 -13.1025 17.5975 -12.125 16.875 C-8.26370803 13.84461896 -6.50122098 9.66918263 -4.39453125 5.328125 C-3 3 -3 3 0 2 C0 1.34 0 0.68 0 0 Z " fill="#E18D98" transform="translate(302,208)"/>
<path d="M0 0 C-6.33128551 2.81737007 -12.04508258 5.30450826 -19 6 C-19.88816406 6.30292969 -20.77632812 6.60585938 -21.69140625 6.91796875 C-25.4535283 8.14832035 -29.17560746 8.91367326 -33.0625 9.625 C-33.75666016 9.7590625 -34.45082031 9.893125 -35.16601562 10.03125 C-38.82172681 10.71170526 -42.2806303 11.15950513 -46 11 C-43.14247972 9.45096836 -40.49950476 8.52732879 -37.33203125 7.81640625 C-36.43806641 7.61080078 -35.54410156 7.40519531 -34.62304688 7.19335938 C-33.69556641 6.98517578 -32.76808594 6.77699219 -31.8125 6.5625 C-25.73537804 5.19525539 -19.82090875 3.69484952 -13.93139648 1.65795898 C-11.68627323 0.8931243 -9.43767264 0.27522236 -7.125 -0.25 C-6.40570313 -0.42015625 -5.68640625 -0.5903125 -4.9453125 -0.765625 C-3 -1 -3 -1 0 0 Z " fill="#F8D04F" transform="translate(181,312)"/>
<path d="M0 0 C0.66 0.33 1.32 0.66 2 1 C1.67 1.66 1.34 2.32 1 3 C0.67905037 5.68722371 0.3932693 8.37009334 0.125 11.0625 C-0.46359871 16.43381062 -1.11785918 21.4061866 -3.07421875 26.47265625 C-4.72589493 30.98166253 -5.96024292 35.62496006 -7.28637695 40.23828125 C-8.89893182 45.79786363 -8.89893182 45.79786363 -10 48 C-10.66 47.67 -11.32 47.34 -12 47 C-11.81244141 46.46705322 -11.62488281 45.93410645 -11.43164062 45.38500977 C-9.45448343 39.63220446 -7.88250635 33.8590512 -6.5 27.9375 C-6.28569336 27.03225586 -6.07138672 26.12701172 -5.85058594 25.19433594 C-4.2004371 18.11835836 -2.81440181 11.01828025 -1.578125 3.859375 C-1 1 -1 1 0 0 Z " fill="#F86167" transform="translate(329,104)"/>
<path d="M0 0 C0.99 0.33 1.98 0.66 3 1 C2.2575 1.5775 1.515 2.155 0.75 2.75 C-1.99198619 4.90659314 -1.99198619 4.90659314 -4.1875 7.25 C-6 9 -6 9 -8 9 C-8.33 9.99 -8.66 10.98 -9 12 C-11.546875 13.7890625 -11.546875 13.7890625 -14.75 15.625 C-15.79671875 16.23601562 -16.8434375 16.84703125 -17.921875 17.4765625 C-20.70979629 18.85637126 -22.94019691 19.58069365 -26 20 C-22.52354638 16.4479713 -18.76173846 13.24338867 -15 10 C-13.700625 8.8553125 -13.700625 8.8553125 -12.375 7.6875 C-10 6 -10 6 -6.9375 5 C-3.68893397 3.89410518 -2.22189038 2.56371967 0 0 Z " fill="#DBB78A" transform="translate(236,281)"/>
<path d="M0 0 C0.66 0.33 1.32 0.66 2 1 C1.67 1.33 1.34 1.66 1 2 C1.99 2.66 2.98 3.32 4 4 C2.98292969 4.36351562 2.98292969 4.36351562 1.9453125 4.734375 C-3.66425819 6.75444201 -9.21298937 8.86030156 -14.7109375 11.16796875 C-17.12313156 12.04475601 -19.47494563 12.55833855 -22 13 C-22 12.34 -22 11.68 -22 11 C-19.64776003 9.7254916 -17.29333069 8.45534102 -14.9375 7.1875 C-14.28072266 6.83107422 -13.62394531 6.47464844 -12.94726562 6.10742188 C-8.71272757 3.8337044 -4.50335617 1.69227242 0 0 Z " fill="#3F93D7" transform="translate(509,353)"/>
<path d="M0 0 C0 3.69349436 -0.88153908 5.00493457 -3 8 C-3.804375 8.639375 -4.60875 9.27875 -5.4375 9.9375 C-8.11333609 11.85956701 -8.11333609 11.85956701 -9.64453125 14.63671875 C-12.49256121 19.04248503 -16.39727988 22.36262618 -20.25 25.875 C-20.99507813 26.56335938 -21.74015625 27.25171875 -22.5078125 27.9609375 C-24.33353072 29.64621586 -26.16426899 31.32564492 -28 33 C-28 30 -28 30 -26.77832031 28.46948242 C-26.21725586 27.93685791 -25.65619141 27.4042334 -25.078125 26.85546875 C-24.46453125 26.26056641 -23.8509375 25.66566406 -23.21875 25.05273438 C-22.5690625 24.43720703 -21.919375 23.82167969 -21.25 23.1875 C-16.880872 19.02706003 -13.2072844 15.1169089 -10 10 C-8.37550757 8.29220027 -6.70779973 6.62449243 -5 5 C-4.071875 4.071875 -3.14375 3.14375 -2.1875 2.1875 C-1.465625 1.465625 -0.74375 0.74375 0 0 Z M-32 34 C-31.01 34.495 -31.01 34.495 -30 35 C-30.99 35.495 -30.99 35.495 -32 36 C-32 35.34 -32 34.68 -32 34 Z " fill="#E1B6BE" transform="translate(296,228)"/>
<path d="M0 0 C-0.763125 0.598125 -1.52625 1.19625 -2.3125 1.8125 C-4.87385069 3.77264567 -4.87385069 3.77264567 -6.296875 5.48046875 C-8.61494437 7.5486545 -11.0470122 8.38525069 -13.9375 9.5 C-17.78537024 10.98765244 -20.7218821 12.53632133 -24 15 C-26.64207321 15.90158338 -29.26265467 16.40690851 -32 17 C-32 16.34 -32 15.68 -32 15 C-31.38511719 14.81824219 -30.77023438 14.63648438 -30.13671875 14.44921875 C-29.32847656 14.19785156 -28.52023438 13.94648438 -27.6875 13.6875 C-26.48673828 13.32205078 -26.48673828 13.32205078 -25.26171875 12.94921875 C-22.85895079 11.94080318 -21.74125577 10.89733472 -20 9 C-17 7 -17 7 -14 7 C-14 6.34 -14 5.68 -14 5 C-2.97297297 -1.48648649 -2.97297297 -1.48648649 0 0 Z " fill="#EDD89A" transform="translate(219,299)"/>
<path d="M0 0 C2.64 0.33 5.28 0.66 8 1 C8 1.66 8 2.32 8 3 C8.721875 3.103125 9.44375 3.20625 10.1875 3.3125 C13.29281145 4.07157613 15.30849407 5.29319136 18 7 C22.80749765 9.5571796 27.62668483 11.26163528 32.8125 12.875 C33.534375 13.24625 34.25625 13.6175 35 14 C35.63671875 16.0703125 35.63671875 16.0703125 36 18 C30.95484202 16.45018023 26.45597416 14.89036162 22 12 C20.00757511 10.9849911 18.00925805 9.98126556 16 9 C16 8.34 16 7.68 16 7 C15.34773437 6.81824219 14.69546875 6.63648438 14.0234375 6.44921875 C9.07269989 5.02533404 4.53453577 3.50592766 0 1 C0 0.67 0 0.34 0 0 Z " fill="#96851D" transform="translate(149,353)"/>
<path d="M0 0 C0.33 0 0.66 0 1 0 C1.18175781 1.02738281 1.36351562 2.05476562 1.55078125 3.11328125 C1.80350136 4.51323547 2.05749704 5.9129598 2.3125 7.3125 C2.51117676 8.40485962 2.51117676 8.40485962 2.71386719 9.51928711 C3.51302896 13.78446049 4.48982061 17.90448873 5.75 22.0625 C7.04091279 26.49039777 7.09229303 29.53152851 6 34 C5.34 33.67 4.68 33.34 4 33 C0.64596312 22.07129611 -0.17037069 11.35804568 0 0 Z " fill="#DAB0C2" transform="translate(330,171)"/>
<path d="M0 0 C-0.70125 0.350625 -1.4025 0.70125 -2.125 1.0625 C-4.76065814 2.8387044 -5.80329042 3.969719 -7.625 6.4375 C-11.37356132 11.05713693 -16.36355673 12.57540445 -22 14 C-22.99 14 -23.98 14 -25 14 C-25 14.66 -25 15.32 -25 16 C-27.64 16.66 -30.28 17.32 -33 18 C-31.32347418 14.64694836 -27.58215126 13.68308005 -24.3125 12.125 C-18.28549874 9.24156819 -18.28549874 9.24156819 -12.60546875 5.7421875 C-10 4 -10 4 -8 4 C-7.7525 3.360625 -7.505 2.72125 -7.25 2.0625 C-6 0 -6 0 -4 -0.8125 C-2 -1 -2 -1 0 0 Z " fill="#E7C059" transform="translate(216,293)"/>
<path d="M0 0 C0.33 0 0.66 0 1 0 C1.01981934 0.75506836 1.03963867 1.51013672 1.06005859 2.28808594 C1.15649239 5.77568593 1.26568279 9.26278097 1.375 12.75 C1.4059375 13.93722656 1.436875 15.12445313 1.46875 16.34765625 C1.6929041 23.18435629 2.2898452 29.73864702 3.57226562 36.4609375 C4.11918889 39.70751397 4.14917601 42.71812784 4 46 C3.34 46 2.68 46 2 46 C0.31368338 40.14165438 -0.27473714 34.98405569 -0.1953125 28.90625 C-0.1924826 28.07411987 -0.18965271 27.24198975 -0.18673706 26.38464355 C-0.17564286 23.75627569 -0.15055925 21.1282629 -0.125 18.5 C-0.11495626 16.70573413 -0.10583286 14.91146285 -0.09765625 13.1171875 C-0.07573893 8.74465721 -0.0412849 4.37238857 0 0 Z " fill="#EF6871" transform="translate(330,109)"/>
<path d="M0 0 C0.33 0 0.66 0 1 0 C1.33 2.31 1.66 4.62 2 7 C2.67804688 7.03738281 3.35609375 7.07476562 4.0546875 7.11328125 C10.53992774 7.57137994 17.02598066 8.26434339 23 11 C23.99 12.485 23.99 12.485 25 14 C19.62392844 13.60331899 14.97663991 13.16930457 10 11 C7.63728482 10.47359195 5.27065619 10.00383029 2.890625 9.5625 C2.26671875 9.376875 1.6428125 9.19125 1 9 C-0.4783226 6.04335481 -0.06032783 3.25770263 0 0 Z " fill="#C79B05" transform="translate(97,326)"/>
<path d="M0 0 C0.66 0.66 1.32 1.32 2 2 C1.60234578 10.1519116 -3.17892038 18.57189384 -8 25 C-8.66 25.33 -9.32 25.66 -10 26 C-7.16894381 17.12077831 -3.71414845 8.54254143 0 0 Z " fill="#F3DFE4" transform="translate(313,202)"/>
<path d="M0 0 C1.76462683 3.08809695 2 4.23312136 2 8 C2.66 8 3.32 8 4 8 C4 9.98 4 11.96 4 14 C4.66 14 5.32 14 6 14 C6.22119939 16.62450086 6.42746669 19.24870486 6.625 21.875 C6.68945312 22.62136719 6.75390625 23.36773437 6.8203125 24.13671875 C6.96087365 26.0870047 6.98759849 28.04469467 7 30 C6.34 30.66 5.68 31.32 5 32 C4.15318611 28.16951846 3.32502029 24.33522945 2.5 20.5 C2.14228516 18.88351563 2.14228516 18.88351563 1.77734375 17.234375 C0.52307562 11.35723292 -0.29171123 6.0092513 0 0 Z " fill="#E4808E" transform="translate(330,147)"/>
<path d="M0 0 C-3 2 -3 2 -5.625 2.5 C-6.40875 2.665 -7.1925 2.83 -8 3 C-8.33 3.66 -8.66 4.32 -9 5 C-15.27 5 -21.54 5 -28 5 C-19.53609634 0.76804817 -9.39524751 -0.49448671 0 0 Z " fill="#FDE59B" transform="translate(153,322)"/>
<path d="M0 0 C0.33 0 0.66 0 1 0 C1.31187672 6.08159611 0.52095827 10.37107603 -1.875 15.9375 C-2.14441406 16.60845703 -2.41382813 17.27941406 -2.69140625 17.97070312 C-4.71787309 22.85893654 -4.71787309 22.85893654 -7 24 C-8.12224855 25.88013106 -8.12224855 25.88013106 -9.125 28.0625 C-9.47820312 28.79597656 -9.83140625 29.52945313 -10.1953125 30.28515625 C-10.59363281 31.13400391 -10.59363281 31.13400391 -11 32 C-11.78757917 29.71948577 -12.16857847 28.46643758 -11.33496094 26.15991211 C-10.97176758 25.53866455 -10.60857422 24.91741699 -10.234375 24.27734375 C-9.64257446 23.22921509 -9.64257446 23.22921509 -9.03881836 22.15991211 C-8.6135083 21.42651611 -8.18819824 20.69312012 -7.75 19.9375 C-4.13331588 13.45358483 -1.38279843 7.35903071 0 0 Z " fill="#EE98A1" transform="translate(315,176)"/>
<path d="M0 0 C0.33 0 0.66 0 1 0 C1.61747427 6.79221701 0.23437159 11.54899207 -4 17 C-4.99 17.33 -5.98 17.66 -7 18 C-7.78361957 11.92694836 -4.55995162 6.36881542 -1.3125 1.4375 C-0.879375 0.963125 -0.44625 0.48875 0 0 Z " fill="#EA7E89" transform="translate(308,187)"/>
<path d="M0 0 C0 0.99 0 1.98 0 3 C-1.98 3.99 -1.98 3.99 -4 5 C-2.68 3.35 -1.36 1.7 0 0 Z M-5 5 C-5 8.98220896 -6.32208355 9.80602572 -9 12.6875 C-9.81597656 13.56921875 -10.63195312 14.4509375 -11.47265625 15.359375 C-14.38371668 18.40091573 -17.34564547 21.38093774 -20.37109375 24.30859375 C-22.19975192 26.10719897 -22.19975192 26.10719897 -24 29 C-24.66 28.67 -25.32 28.34 -26 28 C-26 27.34 -26 26.68 -26 26 C-24.42578125 24.484375 -24.42578125 24.484375 -22.3125 22.75 C-18.74663606 19.724038 -15.92488753 16.63634666 -13 13 C-11.35305515 11.31384218 -9.68873879 9.64429829 -8 8 C-7.401875 7.401875 -6.80375 6.80375 -6.1875 6.1875 C-5.795625 5.795625 -5.40375 5.40375 -5 5 Z M-27 29 C-26.67 29.66 -26.34 30.32 -26 31 C-26.66 30.67 -27.32 30.34 -28 30 C-27.67 29.67 -27.34 29.34 -27 29 Z " fill="#DDABB1" transform="translate(290,233)"/>
<path d="M0 0 C1.67013418 0.65793165 3.3357865 1.32723284 5 2 C5.61230469 2.22945313 6.22460938 2.45890625 6.85546875 2.6953125 C8.60506322 3.38072064 10.30649294 4.18581391 12 5 C12.33 5.99 12.66 6.98 13 8 C15.44043164 10.0964292 15.44043164 10.0964292 18.375 12.125 C19.35210937 12.82882812 20.32921875 13.53265625 21.3359375 14.2578125 C23.93779866 16.12069384 23.93779866 16.12069384 27 17 C28.6875 19.5625 28.6875 19.5625 30 22 C25.71588303 19.96309497 22.06715602 17.292513 18.25 14.5 C17.55261719 14.00113281 16.85523438 13.50226563 16.13671875 12.98828125 C15.14865234 12.26705078 15.14865234 12.26705078 14.140625 11.53125 C13.53766602 11.09361328 12.93470703 10.65597656 12.31347656 10.20507812 C11.8800293 9.80740234 11.44658203 9.40972656 11 9 C11 8.34 11 7.68 11 7 C10.29875 6.9175 9.5975 6.835 8.875 6.75 C5.3096548 5.81990995 2.90984428 4.23313631 0 2 C0 1.34 0 0.68 0 0 Z " fill="#689250" transform="translate(191,375)"/>
<path d="M0 0 C0.33 0 0.66 0 1 0 C1.08149592 3.02138567 1.14073421 6.04053905 1.1875 9.0625 C1.22520508 10.33383789 1.22520508 10.33383789 1.26367188 11.63085938 C1.32846972 17.2250736 0.57466587 21.01960959 -2 26 C-2.33 26 -2.66 26 -3 26 C-3.4490156 16.91990679 -2.18842083 8.80578857 0 0 Z " fill="#FCD8D9" transform="translate(328,131)"/>
<path d="M0 0 C0.66 0.33 1.32 0.66 2 1 C-6.261959 9.44646925 -6.261959 9.44646925 -11 13 C-11.66 12.67 -12.32 12.34 -13 12 C-11.3989569 10.3719224 -9.79405264 8.74764115 -8.1875 7.125 C-7.29417969 6.22007812 -6.40085938 5.31515625 -5.48046875 4.3828125 C-3 2 -3 2 0 0 Z M-13 13 C-14.4258086 16.45195767 -16.09746334 18.1014256 -19.125 20.25 C-20.21167969 21.03117187 -20.21167969 21.03117187 -21.3203125 21.828125 C-21.87460938 22.21484375 -22.42890625 22.6015625 -23 23 C-23.66 22.67 -24.32 22.34 -25 22 C-23.38050958 20.49405319 -21.75424026 18.99539332 -20.125 17.5 C-19.22007812 16.6646875 -18.31515625 15.829375 -17.3828125 14.96875 C-15 13 -15 13 -13 13 Z " fill="#DBBFB0" transform="translate(262,264)"/>
<path d="M0 0 C0 7.02960577 -7.76567111 13.70838062 -12.4375 18.5 C-13.7059375 19.7375 -13.7059375 19.7375 -15 21 C-16.27216335 22.26950192 -17.54294196 23.54039265 -18.8125 24.8125 C-19.875 25.875 -20.9375 26.9375 -22 28 C-22 25 -22 25 -20.71484375 23.45703125 C-20.12832031 22.91433594 -19.54179687 22.37164062 -18.9375 21.8125 C-11.95279959 15.10830965 -5.98906766 7.59133771 0 0 Z " fill="#DC9EA6" transform="translate(289,230)"/>
<path d="M0 0 C1.09570312 0.00193359 2.19140625 0.00386719 3.3203125 0.00585938 C4.465 0.01810547 5.6096875 0.03035156 6.7890625 0.04296875 C7.92601562 0.04361328 9.06296875 0.04425781 10.234375 0.04492188 C15.11001702 0.07067351 19.64476121 0.13661733 24.4140625 1.23046875 C22.4140625 3.23046875 22.4140625 3.23046875 18.9765625 3.41796875 C15.4140625 3.23046875 15.4140625 3.23046875 12.4140625 2.23046875 C10.78686768 2.1490302 9.15654531 2.12293855 7.52734375 2.1328125 C6.58955078 2.13603516 5.65175781 2.13925781 4.68554688 2.14257812 C3.70908203 2.15095703 2.73261719 2.15933594 1.7265625 2.16796875 C0.73849609 2.17248047 -0.24957031 2.17699219 -1.26757812 2.18164062 C-3.70709224 2.19342572 -6.14648439 2.20987864 -8.5859375 2.23046875 C-5.18551183 -0.0364817 -3.98671982 -0.01638378 0 0 Z " fill="#E6D05C" transform="translate(173.5859375,326.76953125)"/>
<path d="M0 0 C4.71403788 0.47939368 8.66579301 0.96834048 13 3 C13 3.66 13 4.32 13 5 C13.763125 4.938125 14.52625 4.87625 15.3125 4.8125 C18 5 18 5 19.8125 6.5 C20.204375 6.995 20.59625 7.49 21 8 C20.67 8.66 20.34 9.32 20 10 C18.35 9.34 16.7 8.68 15 8 C15 7.34 15 6.68 15 6 C14.31292969 5.95101563 13.62585938 5.90203125 12.91796875 5.8515625 C12.01691406 5.77679688 11.11585938 5.70203125 10.1875 5.625 C9.29417969 5.55539062 8.40085938 5.48578125 7.48046875 5.4140625 C5 5 5 5 2 3 C2 2.34 2 1.68 2 1 C1.34 0.67 0.68 0.34 0 0 Z " fill="#B2981A" transform="translate(142,348)"/>
<path d="M0 0 C0.99 0.33 1.98 0.66 3 1 C-0.50314872 4.91528386 -3.03126091 6.47895742 -8 8 C-9.051875 8.721875 -10.10375 9.44375 -11.1875 10.1875 C-12.115625 10.785625 -13.04375 11.38375 -14 12 C-14.99 11.67 -15.98 11.34 -17 11 C-14.70716496 7.56074744 -13.73531091 7.38988313 -10 6 C-7.39168546 4.50021914 -4.87856001 2.91904001 -2.375 1.25 C-1.59125 0.8375 -0.8075 0.425 0 0 Z " fill="#EBE2C8" transform="translate(230,296)"/>
<path d="M0 0 C-1.37909991 1.98245611 -2.49676757 2.89620831 -4.875 3.38671875 C-6.26852803 3.54297833 -7.66465391 3.6778702 -9.0625 3.7890625 C-11.21579442 3.95432436 -11.21579442 3.95432436 -14 5 C-16.39490986 5.06970052 -18.79167691 5.08448003 -21.1875 5.0625 C-22.45980469 5.05347656 -23.73210937 5.04445313 -25.04296875 5.03515625 C-26.50669922 5.01775391 -26.50669922 5.01775391 -28 5 C-24.64608114 2.76405409 -22.58127974 2.47616967 -18.625 1.9375 C-13.95695515 1.29422792 -13.95695515 1.29422792 -9.32421875 0.4453125 C-6.20048778 -0.15318385 -3.17131722 -0.06218269 0 0 Z " fill="#FADC7B" transform="translate(168,318)"/>
<path d="M0 0 C0 0.33 0 0.66 0 1 C-2.64 1.66 -5.28 2.32 -8 3 C-7.34 3.66 -6.68 4.32 -6 5 C-7 6 -7 6 -8.85546875 6.1328125 C-13.34984745 6.11775595 -17.5761669 5.90745294 -22 5 C-18.5647952 2.70986347 -17.014669 2.82157027 -13 3 C-13 2.34 -13 1.68 -13 1 C-8.61414671 0.29826347 -4.44209357 -0.10834375 0 0 Z " fill="#F9D765" transform="translate(137,323)"/>
<path d="M0 0 C0.66 0.33 1.32 0.66 2 1 C-2.3024315 5.73267465 -7.31740658 10.02472345 -13 13 C-15.30859375 12.6953125 -15.30859375 12.6953125 -17 12 C-16.45730469 11.67386719 -15.91460937 11.34773438 -15.35546875 11.01171875 C-14.64003906 10.57472656 -13.92460937 10.13773437 -13.1875 9.6875 C-12.47980469 9.25824219 -11.77210938 8.82898438 -11.04296875 8.38671875 C-9.10001472 7.06788762 -7.63564854 5.67120612 -6 4 C-4.01811655 2.63988391 -2.02048131 1.30208796 0 0 Z " fill="#DEC79F" transform="translate(236,285)"/>
<path d="M0 0 C0.33 0 0.66 0 1 0 C2.23107719 7.72720775 3.2700558 15.1683819 3 23 C2.01 23 1.02 23 0 23 C0 20.69 0 18.38 0 16 C-0.33 16 -0.66 16 -1 16 C-0.67 10.72 -0.34 5.44 0 0 Z " fill="#ECD2DD" transform="translate(329,184)"/>
<path d="M0 0 C0.66 0.33 1.32 0.66 2 1 C-11.56263061 9.52355046 -11.56263061 9.52355046 -16.1640625 8.53515625 C-16.76992187 8.35855469 -17.37578125 8.18195313 -18 8 C-16.08588443 7.01585567 -14.1686033 6.03786651 -12.25 5.0625 C-10.64898437 4.24458984 -10.64898437 4.24458984 -9.015625 3.41015625 C-6.59870027 2.27996217 -4.57864687 1.55173751 -2 1 C-1.34 0.67 -0.68 0.34 0 0 Z " fill="#EDBB32" transform="translate(191,302)"/>
<path d="M0 0 C0.33 0 0.66 0 1 0 C1.32947359 6.15017373 0.47285522 10.39708929 -2 16 C-2.42925781 17.01900391 -2.42925781 17.01900391 -2.8671875 18.05859375 C-3.56544783 19.71114321 -4.28092529 21.35640067 -5 23 C-7.55441025 15.76825748 -3.14446735 6.58840779 0 0 Z " fill="#F0B8BF" transform="translate(315,184)"/>
<path d="M0 0 C0.66 0.33 1.32 0.66 2 1 C1.38125 1.2475 0.7625 1.495 0.125 1.75 C-2.13469726 2.8058373 -2.13469726 2.8058373 -2.8828125 4.93359375 C-4.25174057 7.46563203 -5.42842767 8.08816685 -8 9.3125 C-8.70125 9.65925781 -9.4025 10.00601562 -10.125 10.36328125 C-11.053125 10.67845703 -11.053125 10.67845703 -12 11 C-12.66 10.67 -13.32 10.34 -14 10 C-10.04055212 5.52965562 -5.55413553 2.2914901 0 0 Z " fill="#E1B96B" transform="translate(219,291)"/>
<path d="M0 0 C0.99 0.33 1.98 0.66 3 1 C-1 5.66666667 -5 10.33333333 -9 15 C-9.33 13.68 -9.66 12.36 -10 11 C-9.278125 10.484375 -8.55625 9.96875 -7.8125 9.4375 C-4.49943158 6.56617403 -2.44284263 3.6293662 0 0 Z " fill="#D98E7C" transform="translate(260,252)"/>
<path d="M0 0 C5.94 0 11.88 0 18 0 C18 1.32 18 2.64 18 4 C17.01 4.495 17.01 4.495 16 5 C16 4.34 16 3.68 16 3 C15.02160156 2.90912109 15.02160156 2.90912109 14.0234375 2.81640625 C9.31283783 2.36480009 4.65798362 1.85804961 0 1 C0 0.67 0 0.34 0 0 Z " fill="#D4D385" transform="translate(193,327)"/>
<path d="M0 0 C3 1.1875 3 1.1875 5 3.1875 C1.89685213 3.41345954 -1.20740807 3.61520896 -4.3125 3.8125 C-5.63411133 3.90917969 -5.63411133 3.90917969 -6.98242188 4.0078125 C-7.82998047 4.059375 -8.67753906 4.1109375 -9.55078125 4.1640625 C-10.72120972 4.24261475 -10.72120972 4.24261475 -11.9152832 4.32275391 C-14 4.1875 -14 4.1875 -17 2.1875 C-13.04 2.1875 -9.08 2.1875 -5 2.1875 C-5 1.5275 -5 0.8675 -5 0.1875 C-3 -0.8125 -3 -0.8125 0 0 Z " fill="#EFDB83" transform="translate(178,323.8125)"/>
<path d="M0 0 C0.66 0.165 1.32 0.33 2 0.5 C4.5291329 0.92152215 6.58877251 1.0076908 9.125 0.9375 C13 1 13 1 16 3 C15.67 3.99 15.34 4.98 15 6 C9.72 5.01 4.44 4.02 -1 3 C-0.67 2.01 -0.34 1.02 0 0 Z " fill="#DFDC9D" transform="translate(194,322)"/>
<path d="M0 0 C8.82731159 1.00310359 18.11242714 2.79329448 26 7 C26.33 7.99 26.66 8.98 27 10 C23.95497967 9.05749371 21.17645778 8.09663164 18.375 6.5625 C14.25021797 4.65287869 10.1323302 3.73134899 5.70703125 2.74609375 C3 2 3 2 0 0 Z " fill="#9C7904" transform="translate(118,342)"/>
<path d="M0 0 C0 0.66 0 1.32 0 2 C-7.89955168 4.91036115 -15.60156203 6.31105326 -24 6 C-24 5.67 -24 5.34 -24 5 C-23.39414063 4.89042969 -22.78828125 4.78085937 -22.1640625 4.66796875 C-16.71532842 3.63690061 -11.49507046 2.31922514 -6.2265625 0.5859375 C-4 0 -4 0 0 0 Z " fill="#F6D56B" transform="translate(186,312)"/>
<path d="M0 0 C1.48774963 3.8910375 0.47731321 6.62240173 -0.75 10.5 C-1.09546875 11.6240625 -1.4409375 12.748125 -1.796875 13.90625 C-2.90071648 16.74469952 -4.03789115 18.69959652 -6 21 C-5.60983685 13.19673706 -3.24226342 7.07076635 0 0 Z " fill="#F0868E" transform="translate(315,172)"/>
<path d="M0 0 C1.60472376 4.49322654 -0.02318139 7.31026347 -1.80859375 11.515625 C-3.28647333 14.59736735 -4.97486071 17.25159667 -7 20 C-7.33 19.34 -7.66 18.68 -8 18 C-7.01992106 16.32154146 -6.01578784 14.65709168 -5 13 C-4.24001871 10.93494738 -3.53193053 8.85010861 -2.875 6.75 C-1.09608541 1.09608541 -1.09608541 1.09608541 0 0 Z " fill="#F0CBD3" transform="translate(313,198)"/>
<path d="M0 0 C0.66 0.33 1.32 0.66 2 1 C0.44521347 2.15627814 -1.11919719 3.2996219 -2.6875 4.4375 C-3.55761719 5.07558594 -4.42773438 5.71367187 -5.32421875 6.37109375 C-8.01602415 8.00975485 -9.90816451 8.58775527 -13 9 C-13.928125 9.185625 -14.85625 9.37125 -15.8125 9.5625 C-16.534375 9.706875 -17.25625 9.85125 -18 10 C-14.56861368 7.20661013 -10.81217239 5.22264513 -6.875 3.25 C-5.92560547 2.75693359 -5.92560547 2.75693359 -4.95703125 2.25390625 C-3.33560094 1.43802731 -1.66987872 0.71147715 0 0 Z " fill="#D4B13B" transform="translate(172,290)"/>
<path d="M0 0 C-4.56033396 4.33231726 -7.8203352 5.82799461 -14 7 C-14 6.34 -14 5.68 -14 5 C-2.97297297 -1.48648649 -2.97297297 -1.48648649 0 0 Z " fill="#E5CD91" transform="translate(219,299)"/>
<path d="M0 0 C0.66 0.66 1.32 1.32 2 2 C-2.75 6 -2.75 6 -5 6 C-5.33 6.99 -5.66 7.98 -6 9 C-8.92079805 11.07530387 -10.37546731 12 -14 12 C-4.58997722 3.55353075 -4.58997722 3.55353075 0 0 Z " fill="#D7A88D" transform="translate(251,268)"/>
<path d="M0 0 C1 2 1 2 0.1875 5.0625 C-1 8 -1 8 -3 9 C-4.12224855 10.88013106 -4.12224855 10.88013106 -5.125 13.0625 C-5.47820312 13.79597656 -5.83140625 14.52945313 -6.1953125 15.28515625 C-6.59363281 16.13400391 -6.59363281 16.13400391 -7 17 C-8.0169313 14.34501768 -8.13022151 13.30844625 -7.00390625 10.640625 C-6.52824219 9.85171875 -6.05257813 9.0628125 -5.5625 8.25 C-5.08941406 7.45078125 -4.61632812 6.6515625 -4.12890625 5.828125 C-3.75636719 5.22484375 -3.38382812 4.6215625 -3 4 C-2.34 4 -1.68 4 -1 4 C-0.67 2.68 -0.34 1.36 0 0 Z " fill="#EBA3AC" transform="translate(311,195)"/>
<path d="M0 0 C4.43651689 -0.39145737 7.25241255 0.61517162 11 3 C11.671875 5.109375 11.671875 5.109375 12 7 C3.64989059 4.6892779 3.64989059 4.6892779 0.9375 1.8125 C0.628125 1.214375 0.31875 0.61625 0 0 Z " fill="#8E9239" transform="translate(173,364)"/>
<path d="M0 0 C0.66 0.33 1.32 0.66 2 1 C-0.05688738 2.32206963 -2.1197528 3.63261099 -4.1875 4.9375 C-4.76564453 5.31068359 -5.34378906 5.68386719 -5.93945312 6.06835938 C-9.27213038 8.15834341 -12.07744745 9.53461241 -16 10 C-13.25321417 6.76848726 -9.68037078 4.97274112 -6 3 C-4.906875 2.401875 -3.81375 1.80375 -2.6875 1.1875 C-1.800625 0.795625 -0.91375 0.40375 0 0 Z " fill="#E0C287" transform="translate(226,291)"/>
<path d="M0 0 C0.33 0 0.66 0 1 0 C2.42002108 6.7831364 3.22731216 13.06697907 3 20 C2.34 20 1.68 20 1 20 C-0.03026944 13.30324864 -0.10152799 6.7685324 0 0 Z " fill="#E7B3BF" transform="translate(330,171)"/>
<path d="M0 0 C1.62818946 0.22830701 3.2526349 0.48343576 4.875 0.75 C6.23238281 0.95882813 6.23238281 0.95882813 7.6171875 1.171875 C10 2 10 2 11.3203125 4.078125 C11.54460937 4.71234375 11.76890625 5.3465625 12 6 C8.37471432 6.20140476 6.13498292 5.85776765 3 4 C3 3.34 3 2.68 3 2 C2.01 2 1.02 2 0 2 C0 1.34 0 0.68 0 0 Z " fill="#C19806" transform="translate(131,342)"/>
<path d="M0 0 C0 5.28982837 -1.07739494 8.96756101 -4.625 12.9375 C-5.40875 13.618125 -6.1925 14.29875 -7 15 C-5.34292168 9.35086937 -3.52237988 4.73699363 0 0 Z " fill="#EB6F7A" transform="translate(308,187)"/>
<path d="M0 0 C1.12150295 2.81395287 1.00062999 3.99799572 0.07421875 6.9453125 C-0.38339844 7.99460938 -0.84101563 9.04390625 -1.3125 10.125 C-1.98732422 11.70667969 -1.98732422 11.70667969 -2.67578125 13.3203125 C-4 16 -4 16 -6 18 C-5.85304688 17.43152344 -5.70609375 16.86304688 -5.5546875 16.27734375 C-5.19432943 14.79784548 -4.86432125 13.31050528 -4.5703125 11.81640625 C-3.68242773 7.32246314 -2.69990014 3.80440474 0 0 Z " fill="#F0626B" transform="translate(314,165)"/>
<path d="M0 0 C0.66 0.66 1.32 1.32 2 2 C0.7315625 1.814375 0.7315625 1.814375 -0.5625 1.625 C-5.35613615 2.14794213 -7.76079042 4.56877542 -11 8 C-11.66 8.99 -12.32 9.98 -13 11 C-12.80442984 6.79524165 -12.23756256 5.25413669 -9.3125 2.125 C-5.73397938 -0.17065474 -4.15185195 -0.6605219 0 0 Z " fill="#E27783" transform="translate(332,94)"/>
<path d="M0 0 C0.66 0.33 1.32 0.66 2 1 C0.02 1.99 0.02 1.99 -2 3 C-2 3.66 -2 4.32 -2 5 C-3.24176695 5.70226141 -4.49385599 6.38629109 -5.75 7.0625 C-6.79414063 7.63677734 -6.79414063 7.63677734 -7.859375 8.22265625 C-10.36140628 9.1312406 -11.5332355 8.88336837 -14 8 C-12.71086513 7.32845067 -11.41859796 6.66291141 -10.125 6 C-9.40570313 5.62875 -8.68640625 5.2575 -7.9453125 4.875 C-6 4 -6 4 -4 4 C-4 3.34 -4 2.68 -4 2 C-2.125 0.9375 -2.125 0.9375 0 0 Z " fill="#E9CC7D" transform="translate(207,301)"/>
<path d="M0 0 C0.66 0.33 1.32 0.66 2 1 C0.35 1.66 -1.3 2.32 -3 3 C-2.01 2.01 -1.02 1.02 0 0 Z M-4 3 C-4 3.99 -4 4.98 -4 6 C-5.609375 7.421875 -5.609375 7.421875 -7.75 8.75 C-8.44609375 9.19859375 -9.1421875 9.6471875 -9.859375 10.109375 C-12.38473764 11.16007332 -13.47856025 10.93134261 -16 10 C-13.35118807 7.35118807 -10.43407646 6.44592693 -7 5 C-6.01 4.34 -5.02 3.68 -4 3 Z " fill="#E2D2AD" transform="translate(233,290)"/>
<path d="M0 0 C1.93956814 0.255602 3.87665989 0.53004646 5.8125 0.8125 C7.43091797 1.03873047 7.43091797 1.03873047 9.08203125 1.26953125 C12.06440991 2.01612403 13.14223479 2.62075684 15 5 C12.87420987 4.94011859 10.74921587 4.85137256 8.625 4.75 C6.84996094 4.68039062 6.84996094 4.68039062 5.0390625 4.609375 C2 4 2 4 0.5859375 1.953125 C0.39257812 1.30859375 0.19921875 0.6640625 0 0 Z " fill="#AC8609" transform="translate(99,335)"/>
<path d="M0 0 C0.33 0.66 0.66 1.32 1 2 C1.66 2 2.32 2 3 2 C3 5.63 3 9.26 3 13 C2.34 13 1.68 13 1 13 C-0.10228696 8.59085217 -0.07654536 4.51617599 0 0 Z " fill="#D892A7" transform="translate(334,177)"/>
<path d="M0 0 C1.3805087 3.76668598 0.59568159 6.44789173 -0.4375 10.25 C-0.72496094 11.32765625 -1.01242187 12.4053125 -1.30859375 13.515625 C-1.53675781 14.33546875 -1.76492188 15.1553125 -2 16 C-2.33 16 -2.66 16 -3 16 C-3.33266291 9.79029227 -2.45029331 5.71735105 0 0 Z " fill="#F5A7AE" transform="translate(319,166)"/>
<path d="M0 0 C1.89575251 -0.02721176 3.79161979 -0.04649136 5.6875 -0.0625 C6.74324219 -0.07410156 7.79898438 -0.08570313 8.88671875 -0.09765625 C11.72410262 -0.00865425 14.2438919 0.35060162 17 1 C15 3 15 3 11.5625 3.1875 C8 3 8 3 5 2 C3.33637583 1.65179959 1.67004829 1.31595508 0 1 C0 0.67 0 0.34 0 0 Z " fill="#DDD170" transform="translate(181,327)"/>
<path d="M0 0 C0.66 0.33 1.32 0.66 2 1 C0.92268251 5.88936401 -0.03087231 9.86903974 -3 14 C-3.33 14 -3.66 14 -4 14 C-4 12.35 -4 10.7 -4 9 C-3.01 8.67 -2.02 8.34 -1 8 C-0.67 5.36 -0.34 2.72 0 0 Z " fill="#F5DADF" transform="translate(318,188)"/>
<path d="M0 0 C1.188117 3.56435101 0.88695963 5.37824817 0 9 C-1.4375 11.125 -1.4375 11.125 -3 13 C-3.69580267 14.31836295 -4.37224433 15.64791086 -5 17 C-5.33 16.34 -5.66 15.68 -6 15 C-5.09239638 12.40267775 -4.12932108 9.90549025 -3.0625 7.375 C-2.77181641 6.66859375 -2.48113281 5.9621875 -2.18164062 5.234375 C-1.46132512 3.48672427 -0.73154306 1.74298085 0 0 Z " fill="#E27A85" transform="translate(310,130)"/>
<path d="M0 0 C0.99 0.33 1.98 0.66 3 1 C3 2.32 3 3.64 3 5 C3.66 5 4.32 5 5 5 C5.33 6.32 5.66 7.64 6 9 C5.01 9 4.02 9 3 9 C2.67 8.34 2.34 7.68 2 7 C1.01 7.495 1.01 7.495 0 8 C0 5.36 0 2.72 0 0 Z " fill="#D7AF24" transform="translate(96,324)"/>
<path d="M0 0 C-4.95 2.475 -4.95 2.475 -10 5 C-10 4.34 -10 3.68 -10 3 C-10.99 2.67 -11.98 2.34 -13 2 C-11.21089097 1.47044766 -9.41860852 0.9516063 -7.625 0.4375 C-6.62726562 0.14746094 -5.62953125 -0.14257812 -4.6015625 -0.44140625 C-2 -1 -2 -1 0 0 Z " fill="#308DDA" transform="translate(557,338)"/>
<path d="M0 0 C0 0.66 0 1.32 0 2 C-1.98 2.66 -3.96 3.32 -6 4 C-6 4.66 -6 5.32 -6 6 C-7.98 6.33 -9.96 6.66 -12 7 C-9.20232475 3.70861735 -4.40323273 0 0 0 Z " fill="#4698D6" transform="translate(485,366)"/>
<path d="M0 0 C0.66 0.33 1.32 0.66 2 1 C0.92643323 2.15498897 -0.15929788 3.29867867 -1.25 4.4375 C-1.85328125 5.07558594 -2.4565625 5.71367187 -3.078125 6.37109375 C-5.10048016 8.08516306 -6.41270605 8.59358878 -9 9 C-8.06725891 7.87105124 -7.12859878 6.74699124 -6.1875 5.625 C-5.66542969 4.99851562 -5.14335937 4.37203125 -4.60546875 3.7265625 C-3 2 -3 2 0 0 Z " fill="#E6DBD1" transform="translate(252,279)"/>
<path d="M0 0 C0.33 0 0.66 0 1 0 C1.08142927 1.7492214 1.13938541 3.49954542 1.1875 5.25 C1.23970703 6.71179688 1.23970703 6.71179688 1.29296875 8.203125 C0.96075202 11.37468742 0.11327721 12.67040307 -2 15 C-1.03644647 4.44191344 -1.03644647 4.44191344 0 0 Z " fill="#FCE7E7" transform="translate(328,139)"/>
<path d="M0 0 C0 0.66 0 1.32 0 2 C-1.32 2 -2.64 2 -4 2 C-4.66 3.32 -5.32 4.64 -6 6 C-7.32 6 -8.64 6 -10 6 C-10 5.34 -10 4.68 -10 4 C-3.375 0 -3.375 0 0 0 Z " fill="#338ED8" transform="translate(497,360)"/>
<path d="M0 0 C5.75 4.75 5.75 4.75 8 7 C6.51882199 6.71872579 5.04006751 6.42466268 3.5625 6.125 C2.73878906 5.96257813 1.91507812 5.80015625 1.06640625 5.6328125 C0.38449219 5.42398438 -0.29742187 5.21515625 -1 5 C-1.33 4.34 -1.66 3.68 -2 3 C-1.34 3 -0.68 3 0 3 C0 2.01 0 1.02 0 0 Z " fill="#39AC88" transform="translate(320,554)"/>
<path d="M0 0 C0.99 0.33 1.98 0.66 3 1 C1.57277341 2.1998278 0.13284224 3.3845576 -1.3125 4.5625 C-2.51326172 5.55443359 -2.51326172 5.55443359 -3.73828125 6.56640625 C-4.85783203 7.27603516 -4.85783203 7.27603516 -6 8 C-6.99 7.67 -7.98 7.34 -9 7 C-7.57277341 5.8001722 -6.13284224 4.6154424 -4.6875 3.4375 C-3.88699219 2.77621094 -3.08648437 2.11492187 -2.26171875 1.43359375 C-1.51535156 0.96050781 -0.76898438 0.48742187 0 0 Z " fill="#DCB67A" transform="translate(226,287)"/>
<path d="M0 0 C3.93673644 1.31224548 6.22719294 2.91910327 9 6 C4.9666466 6 3.16482462 4.39120082 0 2 C0 1.34 0 0.68 0 0 Z " fill="#707F38" transform="translate(191,375)"/>
<path d="M0 0 C0 3.20395416 -0.74335022 5.09399739 -2 8 C-2.66 8 -3.32 8 -4 8 C-4.33 8.66 -4.66 9.32 -5 10 C-4.49701212 5.59885603 -2.91227269 3.28804981 0 0 Z " fill="#E7B8C3" transform="translate(302,218)"/>
<path d="M0 0 C0 3 0 3 -2.5 5.6875 C-3.325 6.450625 -4.15 7.21375 -5 8 C-4.64950425 4.75791433 -4.43778819 3.38472296 -1.9375 1.1875 C-1.298125 0.795625 -0.65875 0.40375 0 0 Z " fill="#E7737E" transform="translate(300,205)"/>
<path d="M0 0 C4.75 0.875 4.75 0.875 7 2 C7 2.99 7 3.98 7 5 C4.525 4.01 4.525 4.01 2 3 C2 2.34 2 1.68 2 1 C1.34 0.67 0.68 0.34 0 0 Z " fill="#B08D0B" transform="translate(142,348)"/>
<path d="M0 0 C-4.30769231 3.07692308 -4.30769231 3.07692308 -7.8125 2.6875 C-8.534375 2.460625 -9.25625 2.23375 -10 2 C-6.19832777 -0.53444815 -4.31588991 -1.33941411 0 0 Z " fill="#DBB83B" transform="translate(124,313)"/>
<path d="M0 0 C0 0.66 0 1.32 0 2 C-6.28571429 4.42857143 -6.28571429 4.42857143 -10 3 C-6.27034861 0.96564469 -4.33094958 0 0 0 Z " fill="#F3D67B" transform="translate(186,312)"/>
<path d="M0 0 C-5.75 4 -5.75 4 -8 4 C-7.25 2.0625 -7.25 2.0625 -6 0 C-3.40292416 -1.05506206 -2.5386068 -1.2693034 0 0 Z " fill="#E0AF53" transform="translate(216,293)"/>
<path d="M0 0 C0.33 1.32 0.66 2.64 1 4 C-0.65 5.32 -2.3 6.64 -4 8 C-3.67 6.68 -3.34 5.36 -3 4 C-2.34 4 -1.68 4 -1 4 C-0.67 2.68 -0.34 1.36 0 0 Z " fill="#E3ACB8" transform="translate(296,224)"/>
</svg>
