<?xml version="1.0" encoding="UTF-8"?>
<svg version="1.1" xmlns="http://www.w3.org/2000/svg" width="352" height="393">
<path d="M0 0 C1.29272213 0.72741744 2.5860252 1.45380337 3.87988281 2.17919922 C7.11854407 3.99833899 10.34968405 5.83037058 13.57849121 7.66693115 C16.21777108 9.16626521 18.86279929 10.65534056 21.5078125 12.14453125 C25.24290066 14.24940705 28.97435886 16.3605089 32.703125 18.4765625 C38.74736178 21.90359836 44.81033804 25.29677718 50.875 28.6875 C59.83441159 33.69797007 68.7778204 38.73579089 77.7109375 43.79296875 C84.75446481 47.77786845 91.81204414 51.73715334 98.875 55.6875 C122.77563925 69.06405824 122.77563925 69.06405824 134.375 75.6875 C135.55666748 76.35918213 135.55666748 76.35918213 136.76220703 77.04443359 C138.86921317 78.24732253 140.96733027 79.46414059 143.0625 80.6875 C144.20074219 81.3475 145.33898437 82.0075 146.51171875 82.6875 C150.04818754 85.15772104 152.44521059 87.82792118 154.375 91.6875 C154.47917728 94.1928503 154.52279776 96.67079892 154.52217102 99.17669678 C154.52584771 99.95821429 154.5295244 100.73973179 154.5333125 101.54493165 C154.54437388 104.17807296 154.54819733 106.81117484 154.55200195 109.44433594 C154.55826476 111.32649868 154.56491139 113.20866018 154.57191467 115.09082031 C154.58934154 120.21490396 154.59988105 125.33897827 154.6081202 130.46308422 C154.61326684 133.66291403 154.61934272 136.86274092 154.62563133 140.06256866 C154.64468821 150.06959983 154.65891823 160.07662359 154.6672433 170.08366942 C154.67701822 181.64337941 154.70334236 193.20289804 154.74374419 204.76254058 C154.77388355 213.6916895 154.78871011 222.6207835 154.79202431 231.54998231 C154.79437732 236.8856188 154.80337022 242.22105097 154.82848549 247.556633 C154.85173299 252.576643 154.85601279 257.59631369 154.84572411 262.61636353 C154.84522782 264.458622 154.8515754 266.30089699 154.86528015 268.14310455 C154.88295082 270.6592671 154.87591725 273.17420558 154.86274719 275.69036865 C154.87920106 276.78269983 154.87920106 276.78269983 154.89598733 277.8970983 C154.83222546 282.94643031 153.51212527 285.77876176 150.375 289.6875 C148.45507813 291.33984375 148.45507813 291.33984375 146.40625 292.625 C145.61605469 293.12128906 144.82585937 293.61757813 144.01171875 294.12890625 C139.01902243 297.08014452 133.96156541 299.90171995 128.875 302.6875 C127.6830035 303.34440918 126.49127677 304.0018081 125.29980469 304.65966797 C123.46598106 305.67216625 121.63203008 306.68442294 119.79730225 307.69528198 C113.72500315 311.04115818 107.67278866 314.42253524 101.625 317.8125 C100.59761719 318.38806641 99.57023437 318.96363281 98.51171875 319.55664062 C90.67633771 323.94980306 82.85535035 328.36815881 75.03808594 332.79345703 C66.94318232 337.37335882 58.82839963 341.91726539 50.7109375 346.45703125 C43.75530185 350.34908048 36.81116715 354.26087133 29.875 358.1875 C6.28080986 371.5431669 6.28080986 371.5431669 -3.95605469 377.171875 C-5.64362 378.13019969 -7.30589932 379.13584779 -8.92675781 380.203125 C-15.02577813 384.10299251 -20.47070182 384.92261056 -27.625 383.6875 C-31.71419269 382.19697499 -35.33001229 380.16112963 -39.0625 377.9375 C-40.09963135 377.34767334 -41.1367627 376.75784668 -42.20532227 376.15014648 C-45.3585839 374.35140926 -48.49172498 372.52076716 -51.625 370.6875 C-53.40447602 369.67006811 -55.1856322 368.65556708 -56.96875 367.64453125 C-60.39567682 365.69965133 -63.81564986 363.74340306 -67.23046875 361.77734375 C-73.0878588 358.4125061 -78.97895827 355.10902499 -84.875 351.8125 C-85.92018799 351.22807129 -86.96537598 350.64364258 -88.04223633 350.04150391 C-90.17026011 348.8521078 -92.29843469 347.66298147 -94.42675781 346.47412109 C-108.62327526 338.54357799 -122.81063764 330.59757505 -136.95922852 322.58178711 C-142.96508978 319.18184491 -148.98653509 315.81120053 -155.0168457 312.45483398 C-164.36211884 307.2457455 -173.68336416 301.99454105 -182.9375 296.625 C-183.85668213 296.10099609 -184.77586426 295.57699219 -185.72290039 295.03710938 C-190.94328855 291.97972891 -194.84648934 289.24452133 -197.625 283.6875 C-197.72917728 281.1821497 -197.77279776 278.70420108 -197.77217102 276.19830322 C-197.77584771 275.41678571 -197.7795244 274.63526821 -197.7833125 273.83006835 C-197.79437388 271.19692704 -197.79819733 268.56382516 -197.80200195 265.93066406 C-197.80826476 264.04850132 -197.81491139 262.16633982 -197.82191467 260.28417969 C-197.83934154 255.16009604 -197.84988105 250.03602173 -197.8581202 244.91191578 C-197.86326684 241.71208597 -197.86934272 238.51225908 -197.87563133 235.31243134 C-197.89468821 225.30540017 -197.90891823 215.29837641 -197.9172433 205.29133058 C-197.92701822 193.73162059 -197.95334236 182.17210196 -197.99374419 170.61245942 C-198.02388355 161.6833105 -198.03871011 152.7542165 -198.04202431 143.82501769 C-198.04437732 138.4893812 -198.05337022 133.15394903 -198.07848549 127.818367 C-198.10173299 122.798357 -198.10601279 117.77868631 -198.09572411 112.75863647 C-198.09522782 110.916378 -198.1015754 109.07410301 -198.11528015 107.23189545 C-198.13295082 104.7157329 -198.12591725 102.20079442 -198.11274719 99.68463135 C-198.12371644 98.95641056 -198.13468568 98.22818978 -198.14598733 97.4779017 C-198.08222546 92.42856969 -196.76212527 89.59623824 -193.625 85.6875 C-191.70507812 84.03515625 -191.70507812 84.03515625 -189.65625 82.75 C-188.47095703 82.00556641 -188.47095703 82.00556641 -187.26171875 81.24609375 C-182.26902243 78.29485548 -177.21156541 75.47328005 -172.125 72.6875 C-170.9330035 72.03059082 -169.74127677 71.3731919 -168.54980469 70.71533203 C-166.71598106 69.70283375 -164.88203008 68.69057706 -163.04730225 67.67971802 C-156.97500315 64.33384182 -150.92278866 60.95246476 -144.875 57.5625 C-143.84761719 56.98693359 -142.82023437 56.41136719 -141.76171875 55.81835938 C-133.92633771 51.42519694 -126.10535035 47.00684119 -118.28808594 42.58154297 C-110.19318232 38.00164118 -102.07839963 33.45773461 -93.9609375 28.91796875 C-87.00530185 25.02591952 -80.06116715 21.11412867 -73.125 17.1875 C-61.87798038 10.82104085 -50.61426175 4.48386861 -39.32128906 -1.80078125 C-37.56580246 -2.78502365 -35.81728507 -3.78183531 -34.07714844 -4.79296875 C-33.29629883 -5.24285156 -32.51544922 -5.69273438 -31.7109375 -6.15625 C-31.03853027 -6.55005859 -30.36612305 -6.94386719 -29.67333984 -7.34960938 C-19.06580315 -12.33603663 -9.06702687 -5.18086208 0 0 Z M-42.875 38.0390625 C-44.23334961 38.81056641 -44.23334961 38.81056641 -45.61914062 39.59765625 C-46.61107422 40.16355469 -47.60300781 40.72945312 -48.625 41.3125 C-50.73931904 42.51348624 -52.85391168 43.71399091 -54.96875 44.9140625 C-56.06832031 45.53829102 -57.16789062 46.16251953 -58.30078125 46.80566406 C-63.56473278 49.78558022 -68.84473504 52.73661746 -74.125 55.6875 C-82.13637184 60.16757606 -90.13722125 64.66549302 -98.125 69.1875 C-106.11278044 73.70950793 -114.11379735 78.20711947 -122.125 82.6875 C-136.32453265 90.62938582 -150.49899125 98.615495 -164.625 106.6875 C-164.625 153.5475 -164.625 200.4075 -164.625 248.6875 C-155.13593236 243.94296618 -145.80806051 239.25567371 -136.625 234 C-135.18833984 233.18692383 -135.18833984 233.18692383 -133.72265625 232.35742188 C-131.01289389 230.81668594 -128.30875901 229.27316376 -125.625 227.6875 C-124.9373909 227.46502594 -124.2497818 227.24255188 -123.54133606 227.01333618 C-120.80422206 225.8967947 -119.45656371 225.03605682 -117.625 222.6875 C-116.48362453 216.73066738 -116.76968472 210.83650741 -116.94921875 204.796875 C-116.97178034 203.00958723 -116.99034032 201.22224487 -117.00508118 199.43487549 C-117.0525988 194.72898989 -117.14546347 190.02516357 -117.25054932 185.32025146 C-117.41204574 177.80533758 -117.51001453 170.28952117 -117.59812355 162.77344513 C-117.63601535 160.15792798 -117.69629737 157.54365762 -117.75968933 154.9286499 C-118.08337478 138.37279854 -118.08337478 138.37279854 -114.625 132.6875 C-111.62097437 129.67138386 -108.19105569 127.74159576 -104.4765625 125.69140625 C-103.48317871 125.13960693 -102.48979492 124.58780762 -101.46630859 124.01928711 C-100.40492676 123.43542236 -99.34354492 122.85155762 -98.25 122.25 C-95.98413032 120.99262833 -93.71851064 119.73480604 -91.453125 118.4765625 C-90.30908203 117.84266602 -89.16503906 117.20876953 -87.98632812 116.55566406 C-82.9762807 113.77117228 -77.98708637 110.95035228 -73 108.125 C-71.13024943 107.06633366 -69.26045759 106.00774021 -67.390625 104.94921875 C-65.99166992 104.15717041 -65.99166992 104.15717041 -64.56445312 103.34912109 C-61.41491628 101.56874337 -58.26241356 99.79369951 -55.109375 98.01953125 C-54.04541504 97.42019775 -52.98145508 96.82086426 -51.88525391 96.20336914 C-49.83096025 95.04632927 -47.77597197 93.89052165 -45.72021484 92.73608398 C-44.80449707 92.21989502 -43.8887793 91.70370605 -42.9453125 91.171875 C-42.13336426 90.71522461 -41.32141602 90.25857422 -40.48486328 89.78808594 C-38.67684182 88.82215282 -38.67684182 88.82215282 -37.625 87.6875 C-37.53159566 86.06075222 -37.50754829 84.42995949 -37.51147461 82.80053711 C-37.51155014 81.75953354 -37.51162567 80.71852997 -37.51170349 79.64598083 C-37.51686478 78.5137056 -37.52202606 77.38143036 -37.52734375 76.21484375 C-37.5287587 75.06206436 -37.53017365 73.90928497 -37.53163147 72.72157288 C-37.53724995 69.02268936 -37.54980558 65.32386536 -37.5625 61.625 C-37.56751262 59.12434983 -37.57207594 56.62369871 -37.57617188 54.12304688 C-37.58722538 47.97784412 -37.60398148 41.83267631 -37.625 35.6875 C-39.5408513 35.6875 -41.25936973 37.11821839 -42.875 38.0390625 Z M-5.625 35.6875 C-6.05816007 42.90775887 -6.35449635 50.12465554 -6.55883789 57.35498047 C-6.64403548 59.81002898 -6.75984742 62.26422189 -6.9074707 64.71630859 C-8.22379499 77.79111969 -8.22379499 77.79111969 -4.11102295 89.70166016 C-0.16973859 93.09544132 4.3360426 95.01656057 9.16946411 96.82574463 C12.34681702 98.06721204 15.12376211 99.72007555 18.0625 101.453125 C20.16562189 102.6164741 22.26980031 103.77791513 24.375 104.9375 C26.10494385 105.89603727 27.83488449 106.8545804 29.56462097 107.81349182 C33.67481758 110.09131197 37.78748235 112.36462305 41.90380859 114.63134766 C45.29291316 116.49908494 48.67793222 118.37405739 52.0625 120.25 C53.59293945 121.08869629 53.59293945 121.08869629 55.15429688 121.94433594 C57.92299547 123.48239893 60.65755862 125.0607712 63.375 126.6875 C64.1582666 127.15526855 64.9415332 127.62303711 65.74853516 128.10498047 C70.08242582 130.97747729 72.29833638 133.56440593 73.84739685 138.66972351 C74.92480495 144.83226601 74.43358347 151.11029261 74.17258072 157.33428764 C73.99625907 161.81577698 73.91154924 166.2995389 73.80859375 170.78320312 C73.67102125 176.46485493 73.50740103 182.14264311 73.25732422 187.82055664 C73.05648853 192.43469513 72.94036736 197.04441883 72.87890244 201.66243172 C72.84019257 203.41072814 72.77085568 205.15864437 72.66928482 206.90441704 C72.15866687 215.00945777 72.15866687 215.00945777 74.375 222.6875 C78.48816127 226.95645457 83.8419618 229.36070649 89.20423889 231.70526886 C92.55030505 233.21930482 95.66264976 235.06322814 98.8359375 236.91015625 C101.13940463 238.19229911 103.44407349 239.4722856 105.75 240.75 C106.94798593 241.41849568 108.1459026 242.08711549 109.34375 242.75585938 C110.47554688 243.38427734 111.60734375 244.01269531 112.7734375 244.66015625 C114.28429932 245.49945679 114.28429932 245.49945679 115.82568359 246.35571289 C118.38737162 247.77994944 118.38737162 247.77994944 121.375 248.6875 C121.375 201.8275 121.375 154.9675 121.375 106.6875 C112.465 101.7375 103.555 96.7875 94.375 91.6875 C81.2446871 84.34997221 68.12758626 76.99141673 55.03808594 69.58154297 C46.95860196 65.01036524 38.85970294 60.47434355 30.75708008 55.94433594 C22.36566357 51.25003971 13.99347253 46.5222924 5.6328125 41.7734375 C4.73691406 41.26554687 3.84101563 40.75765625 2.91796875 40.234375 C2.13446045 39.78932617 1.35095215 39.34427734 0.54370117 38.88574219 C-1.48848404 37.76292726 -3.54557264 36.71927473 -5.625 35.6875 Z M-27.11328125 119.109375 C-28.50051392 119.8979187 -28.50051392 119.8979187 -29.91577148 120.70239258 C-31.4115271 121.56127075 -31.4115271 121.56127075 -32.9375 122.4375 C-33.95465088 123.01717529 -34.97180176 123.59685059 -36.01977539 124.1940918 C-39.2238053 126.02125279 -42.42445248 127.85424735 -45.625 129.6875 C-47.68987696 130.86628351 -49.75497461 132.04468052 -51.8203125 133.22265625 C-56.75776062 136.03982131 -61.69246035 138.86175044 -66.625 141.6875 C-66.625 142.3475 -66.625 143.0075 -66.625 143.6875 C-65.96717529 144.05399658 -65.30935059 144.42049316 -64.6315918 144.7980957 C-62.65334365 145.90102195 -60.67560772 147.00486717 -58.69824219 148.109375 C-56.43048384 149.37570905 -54.16159144 150.64001424 -51.89160156 151.90234375 C-46.51437456 154.90302168 -41.16838567 157.9313021 -35.91015625 161.13671875 C-35.05397705 161.65387451 -34.19779785 162.17103027 -33.31567383 162.70385742 C-31.71892811 163.67449098 -30.13101107 164.65983791 -28.5534668 165.66137695 C-27.839729 166.09281006 -27.12599121 166.52424316 -26.390625 166.96875 C-25.77993164 167.35095703 -25.16923828 167.73316406 -24.54003906 168.12695312 C-20.83771949 169.21065095 -17.82645014 166.79253758 -14.58569336 165.1027832 C-13.47331299 164.48749756 -12.36093262 163.87221191 -11.21484375 163.23828125 C-10.60669327 162.90257614 -9.99854279 162.56687103 -9.3719635 162.22099304 C-8.08616122 161.51044271 -6.8011359 160.7984848 -5.5168457 160.08520508 C-3.59440502 159.01771615 -1.66951703 157.954761 0.25585938 156.89257812 C3.36611551 155.17390121 6.46915696 153.44280079 9.56719971 151.70220947 C10.7763625 151.02351231 11.98678322 150.3470516 13.19842529 149.67279053 C14.90615307 148.72058912 16.60753934 147.75704115 18.30859375 146.79296875 C19.28755615 146.2414917 20.26651855 145.69001465 21.27514648 145.12182617 C21.96809814 144.64849854 22.6610498 144.1751709 23.375 143.6875 C23.375 143.0275 23.375 142.3675 23.375 141.6875 C22.71717529 141.32100342 22.05935059 140.95450684 21.3815918 140.5769043 C18.2743374 138.84452688 15.1682392 137.11009238 12.0625 135.375 C10.37241821 134.43116455 10.37241821 134.43116455 8.64819336 133.46826172 C0.7249377 129.03240382 -7.15143578 124.52409692 -14.96020508 119.8894043 C-20.39964852 116.69382972 -21.70933152 116.02140372 -27.11328125 119.109375 Z M-84.625 171.6875 C-84.625 188.8475 -84.625 206.0075 -84.625 223.6875 C-80.561875 225.935625 -76.49875 228.18375 -72.3125 230.5 C-62.84793439 235.74475777 -53.42782188 241.05034965 -44.1003418 246.53637695 C-41.04209871 248.69670011 -41.04209871 248.69670011 -37.625 249.6875 C-37.19183993 242.46724113 -36.89550365 235.25034446 -36.69116211 228.02001953 C-36.60596452 225.56497102 -36.49015258 223.11077811 -36.3425293 220.65869141 C-35.03236263 207.59911901 -35.03236263 207.59911901 -39.11682129 195.68643188 C-43.03640996 192.2964462 -47.53804244 190.40300708 -52.34829712 188.59130859 C-55.79835115 187.22170147 -58.89921255 185.3516243 -62.0859375 183.46484375 C-64.38940463 182.18270089 -66.69407349 180.9027144 -69 179.625 C-70.19798593 178.95650432 -71.3959026 178.28788451 -72.59375 177.61914062 C-73.72554687 176.99072266 -74.85734375 176.36230469 -76.0234375 175.71484375 C-77.03067871 175.15531006 -78.03791992 174.59577637 -79.07568359 174.01928711 C-81.63737162 172.59505056 -81.63737162 172.59505056 -84.625 171.6875 Z M29.6875 177.375 C28.73166016 177.88611328 27.77582031 178.39722656 26.79101562 178.92382812 C24.64831544 180.0822297 22.52561918 181.27803725 20.41894531 182.50073242 C17.2627139 184.29111081 14.02623229 185.69628797 10.68261719 187.1027832 C0.05398604 191.69078308 0.05398604 191.69078308 -6.76559448 200.49673462 C-8.36353553 208.47563504 -7.63401684 216.44863859 -7 224.5 C-6.88949539 226.94552214 -6.78914062 229.39152519 -6.69921875 231.83789062 C-6.4581489 237.79834921 -6.09163482 243.74067161 -5.625 249.6875 C3.77137569 244.71313929 13.10948316 239.65295904 22.375 234.4375 C23.44105469 233.839375 24.50710937 233.24125 25.60546875 232.625 C30.874353 229.66657058 36.12836083 226.68557952 41.375 223.6875 C41.375 206.5275 41.375 189.3675 41.375 171.6875 C37.71690794 171.6875 32.8319383 175.67282116 29.6875 177.375 Z M-107.11328125 254.109375 C-108.50051392 254.8979187 -108.50051392 254.8979187 -109.91577148 255.70239258 C-111.4115271 256.56127075 -111.4115271 256.56127075 -112.9375 257.4375 C-113.95465088 258.01717529 -114.97180176 258.59685059 -116.01977539 259.1940918 C-119.2238053 261.02125279 -122.42445248 262.85424735 -125.625 264.6875 C-127.68987696 265.86628351 -129.75497461 267.04468052 -131.8203125 268.22265625 C-136.75776062 271.03982131 -141.69246035 273.86175044 -146.625 276.6875 C-146.625 277.3475 -146.625 278.0075 -146.625 278.6875 C-145.99859619 279.03828613 -145.37219238 279.38907227 -144.72680664 279.75048828 C-143.83856201 280.24790527 -142.95031738 280.74532227 -142.03515625 281.2578125 C-141.03597168 281.81734619 -140.03678711 282.37687988 -139.00732422 282.95336914 C-136.76282488 284.21030858 -134.51835965 285.4673089 -132.27392578 286.72436523 C-126.58575668 289.91011608 -120.89711938 293.0950211 -115.20703125 296.27734375 C-104.21959112 302.42369346 -93.24456789 308.59097754 -82.28857422 314.79321289 C-74.20834139 319.36472328 -66.10958024 323.90268756 -58.00488281 328.43066406 C-52.69580753 331.39901816 -47.39539086 334.38136942 -42.109375 337.390625 C-41.06201172 337.98617187 -40.01464844 338.58171875 -38.93554688 339.1953125 C-36.94571332 340.32800652 -34.95734715 341.46328361 -32.97070312 342.6015625 C-32.07802734 343.10945313 -31.18535156 343.61734375 -30.265625 344.140625 C-29.48735352 344.58567383 -28.70908203 345.03072266 -27.90722656 345.48925781 C-24.37617774 347.35391718 -24.37617774 347.35391718 -20.625 348.6875 C-18.25045693 348.00686359 -18.25045693 348.00686359 -15.984375 346.53125 C-14.64536133 345.75007813 -14.64536133 345.75007813 -13.27929688 344.953125 C-12.32087891 344.37046875 -11.36246094 343.7878125 -10.375 343.1875 C-8.29745814 341.96775622 -6.21931219 340.74904089 -4.140625 339.53125 C-3.06619141 338.89445312 -1.99175781 338.25765625 -0.88476562 337.6015625 C4.32096338 334.54487321 9.59884514 331.62034852 14.875 328.6875 C22.88748259 324.20942627 30.8872332 319.70950021 38.875 315.1875 C46.86278075 310.66549189 54.86382846 306.16793651 62.875 301.6875 C71.30069127 296.97425533 79.7186575 292.24767908 88.125 287.5 C89.08341797 286.95923828 90.04183594 286.41847656 91.02929688 285.86132812 C92.36831055 285.10432617 92.36831055 285.10432617 93.734375 284.33203125 C94.51264648 283.89221924 95.29091797 283.45240723 96.09277344 282.99926758 C96.8459082 282.56638428 97.59904297 282.13350098 98.375 281.6875 C99.29571289 281.17920654 100.21642578 280.67091309 101.16503906 280.1472168 C101.89432617 279.66551025 102.62361328 279.18380371 103.375 278.6875 C103.375 278.0275 103.375 277.3675 103.375 276.6875 C102.71717529 276.32100342 102.05935059 275.95450684 101.3815918 275.5769043 C99.40334365 274.47397805 97.42560772 273.37013283 95.44824219 272.265625 C93.18048384 270.99929095 90.91159144 269.73498576 88.64160156 268.47265625 C83.26437456 265.47197832 77.91838567 262.4436979 72.66015625 259.23828125 C71.80397705 258.72112549 70.94779785 258.20396973 70.06567383 257.67114258 C68.46892811 256.70050902 66.88101107 255.71516209 65.3034668 254.71362305 C64.23286011 254.06647339 64.23286011 254.06647339 63.140625 253.40625 C62.52993164 253.02404297 61.91923828 252.64183594 61.29003906 252.24804688 C57.63953247 251.17951511 54.7104447 253.5130882 51.51025391 255.17700195 C50.46788574 255.75409912 49.42551758 256.33119629 48.3515625 256.92578125 C47.77734055 257.24281509 47.20311859 257.55984894 46.61149597 257.88648987 C44.73932453 258.92133696 42.86960914 259.96053193 41 261 C39.69367992 261.723608 38.38728258 262.44707654 37.08081055 263.17041016 C29.09508882 267.59681432 21.13306495 272.06437964 13.1875 276.5625 C12.26211426 277.08529541 11.33672852 277.60809082 10.38330078 278.14672852 C5.97700996 280.63818 1.5804337 283.14438211 -2.80078125 285.6796875 C-4.40876049 286.59912219 -6.01682849 287.51840166 -7.625 288.4375 C-8.3368042 288.85628418 -9.0486084 289.27506836 -9.78198242 289.70654297 C-14.59491937 292.43910138 -18.93096182 294.38505166 -24.61865234 293.31103516 C-31.65439042 291.24957825 -37.91789353 287.42020131 -44.25 283.8125 C-45.4436311 283.13962616 -46.63764801 282.4674363 -47.83203125 281.79589844 C-50.2619646 280.42791421 -52.68925271 279.05541208 -55.11425781 277.67871094 C-58.34982957 275.84199408 -61.59193858 274.01711209 -64.8359375 272.1953125 C-72.31957331 267.98681808 -79.79475193 263.76686616 -87.20703125 259.43359375 C-88.08939453 258.91829102 -88.97175781 258.40298828 -89.88085938 257.87207031 C-91.54477776 256.89774377 -93.2063702 255.91943049 -94.86523438 254.93652344 C-95.96254883 254.29312012 -95.96254883 254.29312012 -97.08203125 253.63671875 C-97.72116455 253.25862061 -98.36029785 252.88052246 -99.01879883 252.4909668 C-102.31688774 250.84117038 -104.13096017 252.40519153 -107.11328125 254.109375 Z " fill="#E84435" transform="translate(197.625,9.3125)"/>
<path d="M0 0 C6.15796907 1.11282556 10.72513011 4.07191787 16.0625 7.25 C17.55233398 8.11044922 17.55233398 8.11044922 19.07226562 8.98828125 C20.02939453 9.55417969 20.98652344 10.12007812 21.97265625 10.703125 C23.27601929 11.47124512 23.27601929 11.47124512 24.60571289 12.25488281 C27.86757705 14.6323484 30.19396506 17.38793012 32 21 C32.10417728 23.5053503 32.14779776 25.98329892 32.14717102 28.48919678 C32.15084771 29.27071429 32.1545244 30.05223179 32.1583125 30.85743165 C32.16937388 33.49057296 32.17319733 36.12367484 32.17700195 38.75683594 C32.18326476 40.63899868 32.18991139 42.52116018 32.19691467 44.40332031 C32.21434154 49.52740396 32.22488105 54.65147827 32.2331202 59.77558422 C32.23826684 62.97541403 32.24434272 66.17524092 32.25063133 69.37506866 C32.26968821 79.38209983 32.28391823 89.38912359 32.2922433 99.39616942 C32.30201822 110.95587941 32.32834236 122.51539804 32.36874419 134.07504058 C32.39888355 143.0041895 32.41371011 151.9332835 32.41702431 160.86248231 C32.41937732 166.1981188 32.42837022 171.53355097 32.45348549 176.869133 C32.47673299 181.889143 32.48101279 186.90881369 32.47072411 191.92886353 C32.47022782 193.771122 32.4765754 195.61339699 32.49028015 197.45560455 C32.50795082 199.9717671 32.50091725 202.48670558 32.48774719 205.00286865 C32.50420106 206.09519983 32.50420106 206.09519983 32.52098733 207.2095983 C32.45722546 212.25893031 31.13712527 215.09126176 28 219 C26.08007813 220.65234375 26.08007813 220.65234375 24.03125 221.9375 C23.24105469 222.43378906 22.45085937 222.93007813 21.63671875 223.44140625 C16.64402243 226.39264452 11.58656541 229.21421995 6.5 232 C5.3080035 232.65690918 4.11627677 233.3143081 2.92480469 233.97216797 C1.09098106 234.98466625 -0.74296992 235.99692294 -2.57769775 237.00778198 C-8.64999685 240.35365818 -14.70221134 243.73503524 -20.75 247.125 C-21.77738281 247.70056641 -22.80476563 248.27613281 -23.86328125 248.86914062 C-31.69866229 253.26230306 -39.51964965 257.68065881 -47.33691406 262.10595703 C-55.43181768 266.68585882 -63.54660037 271.22976539 -71.6640625 275.76953125 C-78.61969815 279.66158048 -85.56383285 283.57337133 -92.5 287.5 C-116.09419014 300.8556669 -116.09419014 300.8556669 -126.33105469 306.484375 C-128.01862 307.44269969 -129.68089932 308.44834779 -131.30175781 309.515625 C-137.40077813 313.41549251 -142.84570182 314.23511056 -150 313 C-154.08919269 311.50947499 -157.70501229 309.47362963 -161.4375 307.25 C-162.47463135 306.66017334 -163.5117627 306.07034668 -164.58032227 305.46264648 C-167.7335839 303.66390926 -170.86672498 301.83326716 -174 300 C-175.77947602 298.98256811 -177.5606322 297.96806708 -179.34375 296.95703125 C-182.77067682 295.01215133 -186.19064986 293.05590306 -189.60546875 291.08984375 C-195.4628588 287.7250061 -201.35395827 284.42152499 -207.25 281.125 C-208.29518799 280.54057129 -209.34037598 279.95614258 -210.41723633 279.35400391 C-212.54526011 278.1646078 -214.67343469 276.97548147 -216.80175781 275.78662109 C-230.9908347 267.86023448 -245.16950216 259.91625466 -259.31225586 251.9074707 C-267.59960351 247.21766488 -275.90837572 242.56651719 -284.2265625 237.93164062 C-291.20036204 234.03724128 -298.11329769 230.04634658 -305 226 C-301.91676128 223.94450752 -298.74041272 222.13621249 -295.50390625 220.33984375 C-294.5589756 219.81494102 -294.5589756 219.81494102 -293.59495544 219.2794342 C-292.26481939 218.54156075 -290.93424782 217.8044719 -289.60327148 217.06811523 C-287.57102087 215.94222068 -285.54236044 214.81003139 -283.51367188 213.67773438 C-282.21896796 212.96054389 -280.924053 212.24373423 -279.62890625 211.52734375 C-279.02462296 211.18879868 -278.42033966 210.8502536 -277.79774475 210.50144958 C-271.76160419 207.18197443 -271.76160419 207.18197443 -269 207 C-266.64770508 207.94946289 -266.64770508 207.94946289 -264.01953125 209.47265625 C-263.0332373 210.0354126 -262.04694336 210.59816895 -261.03076172 211.17797852 C-259.43772217 212.11081665 -259.43772217 212.11081665 -257.8125 213.0625 C-255.54056118 214.36492633 -253.26842014 215.66699997 -250.99609375 216.96875 C-249.82132688 217.64691902 -248.64668506 218.32530473 -247.47216797 219.00390625 C-242.13778178 222.07918685 -236.75350618 225.06531717 -231.375 228.0625 C-222.4568789 233.05173149 -213.55634844 238.07147498 -204.66357422 243.10571289 C-196.58334139 247.67722328 -188.48458024 252.21518756 -180.37988281 256.74316406 C-175.07080753 259.71151816 -169.77039086 262.69386942 -164.484375 265.703125 C-163.43701172 266.29867188 -162.38964844 266.89421875 -161.31054688 267.5078125 C-159.32071332 268.64050652 -157.33234715 269.77578361 -155.34570312 270.9140625 C-154.45302734 271.42195313 -153.56035156 271.92984375 -152.640625 272.453125 C-151.86235352 272.89817383 -151.08408203 273.34322266 -150.28222656 273.80175781 C-146.75117774 275.66641718 -146.75117774 275.66641718 -143 277 C-140.62545693 276.31936359 -140.62545693 276.31936359 -138.359375 274.84375 C-137.46669922 274.32296875 -136.57402344 273.8021875 -135.65429688 273.265625 C-134.21666992 272.39164062 -134.21666992 272.39164062 -132.75 271.5 C-130.67245814 270.28025622 -128.59431219 269.06154089 -126.515625 267.84375 C-125.44119141 267.20695312 -124.36675781 266.57015625 -123.25976562 265.9140625 C-118.05403662 262.85737321 -112.77615486 259.93284852 -107.5 257 C-99.48751741 252.52192627 -91.4877668 248.02200021 -83.5 243.5 C-74.47546382 238.39106836 -65.43311196 233.3147433 -56.37988281 228.25683594 C-51.07080753 225.28848184 -45.77039086 222.30613058 -40.484375 219.296875 C-38.91333008 218.40355469 -38.91333008 218.40355469 -37.31054688 217.4921875 C-35.32071332 216.35949348 -33.33234715 215.22421639 -31.34570312 214.0859375 C-30.45302734 213.57804688 -29.56035156 213.07015625 -28.640625 212.546875 C-27.86235352 212.10182617 -27.08408203 211.65677734 -26.28222656 211.19824219 C-23.90762092 209.95149802 -21.50524273 208.95316571 -19 208 C-19 207.34 -19 206.68 -19 206 C-19.69134033 205.74186523 -20.38268066 205.48373047 -21.0949707 205.21777344 C-24.35940236 203.84934037 -27.38203837 202.22758266 -30.48046875 200.515625 C-31.09336258 200.17754822 -31.70625641 199.83947144 -32.33772278 199.4911499 C-33.63192462 198.77641735 -34.92534254 198.06026369 -36.21801758 197.34277344 C-38.16227035 196.26399875 -40.10922003 195.19023081 -42.05664062 194.1171875 C-43.32300972 193.4168349 -44.58928681 192.71631591 -45.85546875 192.015625 C-46.47340302 191.67551392 -47.09133728 191.33540283 -47.72799683 190.98498535 C-52.24828917 188.47707389 -56.58417851 185.7525102 -60.8449707 182.82714844 C-63.01524096 181.75095017 -63.01524096 181.75095017 -65.39770508 182.65014648 C-68.29152546 184.15121909 -71.1711024 185.65911319 -74.0234375 187.23828125 C-74.59811264 187.55558701 -75.17278778 187.87289276 -75.76487732 188.19981384 C-77.63655924 189.23444224 -79.50580768 190.27338163 -81.375 191.3125 C-82.67398465 192.03173379 -83.97305782 192.75080772 -85.2722168 193.46972656 C-94.41117779 198.53332252 -103.51843487 203.65252177 -112.58935547 208.8371582 C-113.45318848 209.32917725 -114.31702148 209.82119629 -115.20703125 210.328125 C-115.9441333 210.7499707 -116.68123535 211.17181641 -117.44067383 211.60644531 C-120.914342 213.49785979 -124.4540553 215.24873542 -128 217 C-128.198124 211.67998972 -128.34308619 206.36213454 -128.43945312 201.03930664 C-128.47962739 199.23000686 -128.53418125 197.42096592 -128.60351562 195.61254883 C-128.70085601 193.00797789 -128.74597932 190.40684208 -128.78125 187.80078125 C-128.82254028 186.99538406 -128.86383057 186.18998688 -128.90637207 185.36018372 C-128.9082503 182.9965439 -128.80679785 181.22479326 -128 179 C-125.60913295 176.73953573 -122.95226181 175.40848626 -120 174 C-118.50871582 173.13785889 -118.50871582 173.13785889 -116.98730469 172.25830078 C-116.05821289 171.74251465 -115.12912109 171.22672852 -114.171875 170.6953125 C-113.12386719 170.11136719 -112.07585937 169.52742187 -110.99609375 168.92578125 C-109.92488281 168.33152344 -108.85367188 167.73726562 -107.75 167.125 C-105.61917719 165.94120955 -103.48896713 164.75631546 -101.359375 163.5703125 C-100.31587891 162.98926758 -99.27238281 162.40822266 -98.19726562 161.80957031 C-93.88199877 159.36723999 -89.62363313 156.83212077 -85.37207031 154.28076172 C-83 153 -83 153 -81 153 C-81.33 136.17 -81.66 119.34 -82 102 C-93.82353845 108.36120197 -105.6212407 114.727162 -117.25 121.4375 C-137.62866398 133.15081651 -137.62866398 133.15081651 -144 133 C-144.19822574 128.10725504 -144.34312625 123.21685831 -144.43945312 118.32104492 C-144.47961164 116.6572193 -144.53415464 114.99367478 -144.60351562 113.33081055 C-145.1596309 99.6528282 -145.1596309 99.6528282 -142.60107422 96.00610352 C-140.46400117 94.64772888 -138.38132568 93.85940658 -136 93 C-134.11277794 91.96005705 -132.24125263 90.89132641 -130.3828125 89.80078125 C-128.29804655 88.63592161 -126.21205681 87.47325015 -124.125 86.3125 C-123.01511719 85.69310547 -121.90523437 85.07371094 -120.76171875 84.43554688 C-113.8191512 80.56295861 -106.87223277 76.69803674 -99.91772461 72.84692383 C-95.4385624 70.36426965 -90.97223365 67.8597723 -86.51171875 65.34375 C-85.38314453 64.70824219 -84.25457031 64.07273437 -83.09179688 63.41796875 C-80.86378953 62.16271734 -78.63716904 60.90500035 -76.41210938 59.64453125 C-75.39310547 59.07089844 -74.37410156 58.49726563 -73.32421875 57.90625 C-72.41760498 57.39384766 -71.51099121 56.88144531 -70.5769043 56.35351562 C-68.07655795 55.04021196 -65.68594833 53.8771767 -63 53 C-57.49765018 55.04324547 -51.88141244 58.83746939 -49 64 C-46.27901232 72.88835503 -46.74708383 81.96322666 -46.8046875 91.16015625 C-46.80842313 92.91849099 -46.8112675 94.67682783 -46.81326294 96.43516541 C-46.82085611 101.03662991 -46.84046697 105.63796579 -46.8626709 110.23937988 C-46.88322288 114.94537619 -46.89228456 119.65139351 -46.90234375 124.35742188 C-46.92371739 133.57167073 -46.95780052 142.78582462 -47 152 C-46.27635254 152.40202637 -45.55270508 152.80405273 -44.80712891 153.21826172 C-30.53808594 161.14550781 -16.26904297 169.07275391 -2 177 C-1.99576806 176.31258382 -1.99153612 175.62516764 -1.98717594 174.91692066 C-1.8827415 157.99653365 -1.77396354 141.07618026 -1.66066074 124.15585041 C-1.60596192 115.97248284 -1.55262224 107.78911102 -1.50268555 99.60571289 C-1.07080507 29.05961091 -1.07080507 29.05961091 0 0 Z " fill="#4285F3" transform="translate(320,80)"/>
<path d="M0 0 C0.71412156 22.70876879 1.17548905 45.4027787 1.30332303 68.1221838 C1.32587051 71.97773519 1.35290807 75.83325566 1.37937927 79.68878174 C1.42841172 86.92304771 1.4736647 94.15733165 1.51740164 101.39163136 C1.56756166 109.65593288 1.6221759 117.92020333 1.67708123 126.18447447 C1.78951989 143.12295403 1.89663487 160.06146258 2 177 C2.66478269 176.63016621 3.32956537 176.26033241 4.01449299 175.87929153 C7.09103696 174.17364866 10.17396787 172.47987203 13.25708008 170.78613281 C14.30216988 170.20445343 15.34725967 169.62277405 16.42401886 169.02346802 C22.55899748 165.66513785 28.63589771 162.81331697 35.23080921 160.47449112 C40.11462005 158.53889131 43.95022886 156.34188963 47 152 C50.32216475 141.33348019 49.38020939 129.75123792 48.90551758 118.72668457 C48.74994932 114.58452654 48.71534471 110.44144525 48.66992188 106.296875 C48.56357425 98.19228706 48.32482723 90.09876343 48 82 C51.8020012 83.48455528 55.29064834 85.18573832 58.8515625 87.1875 C59.94984375 87.80367188 61.048125 88.41984375 62.1796875 89.0546875 C63.31664063 89.69664062 64.45359375 90.33859375 65.625 91 C66.7696875 91.64195312 67.914375 92.28390625 69.09375 92.9453125 C77.55680216 97.70453477 77.55680216 97.70453477 81 100 C81.36076355 102.25259399 81.36076355 102.25259399 81.34057617 105.09228516 C81.34034958 106.15323395 81.34012299 107.21418274 81.33988953 108.30728149 C81.32440567 109.45626923 81.30892181 110.60525696 81.29296875 111.7890625 C81.28872391 112.96262299 81.28447906 114.13618347 81.28010559 115.3453064 C81.26326976 119.10543454 81.22560777 122.86503297 81.1875 126.625 C81.17245954 129.16926311 81.15877003 131.7135346 81.14648438 134.2578125 C81.11335017 140.50539005 81.06310206 146.75265719 81 153 C81.77341736 153.30397705 82.54683472 153.6079541 83.34368896 153.92114258 C88.17443781 155.88314521 92.67457874 158.51110879 97.25 161 C98.2296875 161.52722656 99.209375 162.05445313 100.21875 162.59765625 C109.29143142 167.51784117 118.08668816 172.75687539 127 178 C127.495 152.755 127.495 152.755 128 127 C133 129 133 129 135.125 130.625 C139.74012856 132.8322354 143.98833508 132.66639909 149 132 C151.99920154 130.8968162 151.99920154 130.8968162 154.8671875 129.46875 C155.8351123 129.00919922 156.80303711 128.54964844 157.80029297 128.07617188 C158.52619629 127.72103516 159.25209961 127.36589844 160 127 C160.18534534 138.64791471 160.32749922 150.29547882 160.41449738 161.94456768 C160.45625256 167.35379294 160.51288676 172.7620096 160.60351562 178.1706543 C160.69043006 183.39028136 160.73827164 188.60893836 160.75901794 193.82923317 C160.77380215 195.82088307 160.80267382 197.81247972 160.84584045 199.80371666 C160.90392134 202.59386293 160.91191387 205.38000095 160.90820312 208.1706543 C160.93696533 208.99424438 160.96572754 209.81783447 160.99536133 210.66638184 C160.9613614 213.02886341 160.84138272 214.78948182 160 217 C155.47931093 221.29680149 149.20603908 223.74855827 143 224 C135.16483838 222.54577226 128.19500031 218.01067756 121.375 214.125 C120.1813689 213.45212616 118.98735199 212.7799363 117.79296875 212.10839844 C115.3630354 210.74041421 112.93574729 209.36791208 110.51074219 207.99121094 C107.27517043 206.15449408 104.03306142 204.32961209 100.7890625 202.5078125 C98.85930359 201.42200191 96.92961413 200.33606787 95 199.25 C94.07058594 198.72801025 93.14117187 198.20602051 92.18359375 197.66821289 C87.58498707 195.07338908 83.02957427 192.4284536 78.5234375 189.67578125 C77.65460938 189.15145508 76.78578125 188.62712891 75.890625 188.08691406 C74.25865983 187.09797864 72.63555834 186.09420742 71.0234375 185.07324219 C70.3015625 184.63786133 69.5796875 184.20248047 68.8359375 183.75390625 C68.21251465 183.36533447 67.5890918 182.9767627 66.94677734 182.57641602 C63.21648782 181.47192472 60.23020478 183.87996954 56.96069336 185.5847168 C55.84831299 186.20000244 54.73593262 186.81528809 53.58984375 187.44921875 C52.67761803 187.95277641 52.67761803 187.95277641 51.7469635 188.46650696 C50.46116122 189.17705729 49.1761359 189.8890152 47.8918457 190.60229492 C45.96940502 191.66978385 44.04451703 192.732739 42.11914062 193.79492188 C35.30374029 197.56282744 28.54827316 201.41542395 21.83325195 205.36035156 C18.17067995 207.47994084 14.45561705 209.49378896 10.73242188 211.50439453 C7.91713284 213.04535778 5.13738596 214.6390077 2.359375 216.24609375 C0.48958333 217.30989583 -1.38020833 218.37369792 -3.25 219.4375 C-4.19101562 219.99115234 -5.13203125 220.54480469 -6.1015625 221.11523438 C-10.30437969 223.47858326 -13.0191262 224.99509563 -17.90625 225.01953125 C-20.83710348 224.05368181 -22.84035565 223.15028863 -25.25 221.25 C-26.21679688 220.51523437 -26.21679688 220.51523437 -27.203125 219.765625 C-31.035894 215.99951285 -32.33839446 212.75613005 -32.40589231 207.357328 C-32.39687724 206.26472028 -32.39687724 206.26472028 -32.38768005 205.15003967 C-32.39306559 204.36595889 -32.39845113 203.58187811 -32.40399987 202.7740373 C-32.41829283 200.15006059 -32.41117252 197.52658739 -32.40405273 194.90258789 C-32.4097556 193.0199798 -32.41671954 191.13737517 -32.42485046 189.254776 C-32.44280612 184.1432122 -32.44160896 179.03181984 -32.43590808 173.92023396 C-32.43281972 169.65322742 -32.43890475 165.38625398 -32.44494683 161.11925215 C-32.45899834 151.05318767 -32.45742553 140.98720805 -32.44604492 130.92114258 C-32.43456265 120.53563552 -32.44863985 110.15038665 -32.4754414 99.76491362 C-32.49759064 90.84842613 -32.50423753 81.93201973 -32.49836498 73.01550668 C-32.49499241 67.68999865 -32.49743052 62.36465613 -32.51461601 57.03917122 C-32.53007066 52.03140025 -32.52614596 47.0240121 -32.50731087 42.01625633 C-32.50362091 40.1788452 -32.5067453 38.3414058 -32.51719666 36.50402069 C-32.53038065 33.99455282 -32.51888285 31.48635713 -32.50120544 28.97694397 C-32.51561295 27.88768233 -32.51561295 27.88768233 -32.53031152 26.77641541 C-32.45731957 21.73633557 -31.12536523 18.9053455 -28 15 C-22.94163754 10.54644175 -16.45960738 7.47131894 -10.625 4.125 C-9.9227832 3.71918701 -9.22056641 3.31337402 -8.49707031 2.89526367 C-3.35407779 0 -3.35407779 0 0 0 Z " fill="#FABB04" transform="translate(32,80)"/>
<path d="M0 0 C3.70115254 0.46324051 6.43109455 1.59227613 9.640625 3.44921875 C10.97963867 4.21588867 10.97963867 4.21588867 12.34570312 4.99804688 C13.78333008 5.83432617 13.78333008 5.83432617 15.25 6.6875 C17.32776679 7.87953085 19.40590463 9.07091511 21.484375 10.26171875 C22.55880859 10.87966309 23.63324219 11.49760742 24.74023438 12.13427734 C29.9717131 15.12850745 35.23628033 18.06294327 40.5 21 C49.45987506 26.00963648 58.40282492 31.04829345 67.3359375 36.10546875 C75.41636753 40.67699971 83.51526094 45.21509883 91.62011719 49.74316406 C96.92919247 52.71151816 102.22960914 55.69386942 107.515625 58.703125 C108.56298828 59.29867187 109.61035156 59.89421875 110.68945312 60.5078125 C112.67928668 61.64050652 114.66765285 62.77578361 116.65429688 63.9140625 C117.54697266 64.42195313 118.43964844 64.92984375 119.359375 65.453125 C120.13764648 65.89817383 120.91591797 66.34322266 121.71777344 66.80175781 C125.24882226 68.66641718 125.24882226 68.66641718 129 70 C131.37454307 69.31936359 131.37454307 69.31936359 133.640625 67.84375 C134.97963867 67.06257813 134.97963867 67.06257813 136.34570312 66.265625 C137.30412109 65.68296875 138.26253906 65.1003125 139.25 64.5 C141.32754186 63.28025622 143.40568781 62.06154089 145.484375 60.84375 C146.55880859 60.20695312 147.63324219 59.57015625 148.74023438 58.9140625 C153.94596338 55.85737321 159.22384514 52.93284852 164.5 50 C172.51248259 45.52192627 180.5122332 41.02200021 188.5 36.5 C196.48778075 31.97799189 204.48882846 27.48043651 212.5 23 C220.92569127 18.28675533 229.3436575 13.56017908 237.75 8.8125 C238.70841797 8.27173828 239.66683594 7.73097656 240.65429688 7.17382812 C241.54697266 6.66916016 242.43964844 6.16449219 243.359375 5.64453125 C244.52678223 4.98481323 244.52678223 4.98481323 245.71777344 4.31176758 C248.08113853 2.99161405 248.08113853 2.99161405 250.54003906 1.2722168 C253 0 253 0 255.00708008 0.15332031 C257.38468658 1.16343171 259.6242375 2.29774503 261.88671875 3.546875 C263.2953418 4.3203125 263.2953418 4.3203125 264.73242188 5.109375 C265.70759766 5.65078125 266.68277344 6.1921875 267.6875 6.75 C268.64333984 7.2759375 269.59917969 7.801875 270.58398438 8.34375 C273.39229948 9.89052478 276.19686164 11.44386618 279 13 C279.89541504 13.49693359 280.79083008 13.99386719 281.71337891 14.50585938 C283.80935624 15.66978961 285.90492713 16.83444275 288 18 C284.99695409 21.29007861 281.98386985 23.3189605 278.07421875 25.43359375 C277.49889908 25.74761642 276.92357941 26.0616391 276.33082581 26.38517761 C275.0958526 27.05833445 273.85917767 27.72837707 272.62097168 28.39556885 C269.99022351 29.81325626 267.36785578 31.24612707 264.7449646 32.67828369 C263.41010954 33.40702378 262.0748416 34.1350081 260.73916626 34.86224365 C254.87554278 38.05709653 249.05560571 41.32590569 243.25 44.625 C235.34740384 49.10879656 227.43065673 53.56600864 219.5 58 C211.4887178 62.48023727 203.48777962 66.97799253 195.5 71.5 C186.47743742 76.60781435 177.43587847 81.68087906 168.38647461 86.7409668 C159.93678169 91.46841572 151.50517215 96.22736802 143.08203125 101.00195312 C142.1796875 101.51306641 141.27734375 102.02417969 140.34765625 102.55078125 C139.15668335 103.22620972 139.15668335 103.22620972 137.94165039 103.9152832 C132.7520979 106.8144636 127.86786618 106.68860703 122 106 C117.89889233 104.54139784 114.29456139 102.47337565 110.5625 100.25 C109.52536865 99.66017334 108.4882373 99.07034668 107.41967773 98.46264648 C104.2664161 96.66390926 101.13327502 94.83326716 98 93 C96.22052398 91.98256811 94.4393678 90.96806708 92.65625 89.95703125 C89.22932318 88.01215133 85.80935014 86.05590306 82.39453125 84.08984375 C76.5371412 80.7250061 70.64604173 77.42152499 64.75 74.125 C63.70481201 73.54057129 62.65962402 72.95614258 61.58276367 72.35400391 C59.45473989 71.1646078 57.32656531 69.97548147 55.19824219 68.78662109 C41.0091653 60.86023448 26.83049784 52.91625466 12.68774414 44.9074707 C4.40039649 40.21766488 -3.90837572 35.56651719 -12.2265625 30.93164062 C-19.20036204 27.03724128 -26.11329769 23.04634658 -33 19 C-29.88862905 16.9257527 -26.67556923 15.130959 -23.3984375 13.33984375 C-22.09113846 12.62175821 -20.78384702 11.90365884 -19.4765625 11.18554688 C-17.41824833 10.0570246 -15.35962075 8.92907725 -13.30078125 7.80151367 C-11.31171271 6.71155147 -9.32378005 5.61953982 -7.3359375 4.52734375 C-6.71617035 4.18879868 -6.0964032 3.8502536 -5.45785522 3.50144958 C-2.54903633 2.00461002 -2.54903633 2.00461002 0 0 Z " fill="#34A753" transform="translate(48,287)"/>
</svg>
